<svg width="372" height="172" viewBox="0 0 372 172" fill="none" xmlns="http://www.w3.org/2000/svg">
<rect width="372" height="172" fill="#FEFEFE"/>
<rect x="6" y="6" width="360" height="160" fill="#5BB145"/>
<line x1="216.5" y1="6" x2="216.5" y2="166" stroke="#FEFEFE"/>
<line x1="186.5" y1="6" x2="186.5" y2="166" stroke="#FEFEFE"/>
<line x1="201.5" y1="6" x2="201.5" y2="166" stroke="#FEFEFE"/>
<line x1="336.5" y1="6" x2="336.5" y2="166" stroke="#FEFEFE"/>
<line x1="321.5" y1="6" x2="321.5" y2="166" stroke="#FEFEFE"/>
<line x1="306.5" y1="6" x2="306.5" y2="166" stroke="#FEFEFE"/>
<line x1="291.5" y1="6" x2="291.5" y2="166" stroke="#FEFEFE"/>
<line x1="246.5" y1="6" x2="246.5" y2="166" stroke="#FEFEFE"/>
<line x1="261.5" y1="6" x2="261.5" y2="166" stroke="#FEFEFE"/>
<line x1="276.5" y1="6" x2="276.5" y2="166" stroke="#FEFEFE"/>
<line x1="231.5" y1="6" x2="231.5" y2="166" stroke="#FEFEFE"/>
<line x1="51.5" y1="6" x2="51.5" y2="166" stroke="#FEFEFE"/>
<line x1="36.5" y1="6" x2="36.5" y2="166" stroke="#FEFEFE"/>
<line x1="171.5" y1="6" x2="171.5" y2="166" stroke="#FEFEFE"/>
<line x1="156.5" y1="6" x2="156.5" y2="166" stroke="#FEFEFE"/>
<line x1="141.5" y1="6" x2="141.5" y2="166" stroke="#FEFEFE"/>
<line x1="126.5" y1="6" x2="126.5" y2="166" stroke="#FEFEFE"/>
<line x1="81.5" y1="6" x2="81.5" y2="166" stroke="#FEFEFE"/>
<line x1="96.5" y1="6" x2="96.5" y2="166" stroke="#FEFEFE"/>
<line x1="111.5" y1="6" x2="111.5" y2="166" stroke="#FEFEFE"/>
<line x1="66.5" y1="6" x2="66.5" y2="166" stroke="#FEFEFE"/>
<path d="M245 24.512C245 25.6427 244.88 26.6 244.64 27.384C244.4 28.1733 244.069 28.808 243.648 29.288C243.227 29.7733 242.749 30.1253 242.216 30.344C241.677 30.5627 241.112 30.672 240.52 30.672C239.885 30.672 239.296 30.5627 238.752 30.344C238.208 30.1253 237.733 29.7733 237.328 29.288C236.923 28.808 236.608 28.1733 236.384 27.384C236.155 26.6 236.04 25.6427 236.04 24.512C236.04 23.3813 236.168 22.4213 236.424 21.632C236.68 20.848 237.024 20.2133 237.456 19.728C237.883 19.248 238.363 18.8987 238.896 18.68C239.424 18.4613 239.965 18.352 240.52 18.352C241.112 18.352 241.677 18.4613 242.216 18.68C242.749 18.8987 243.227 19.248 243.648 19.728C244.069 20.2133 244.4 20.848 244.64 21.632C244.88 22.4213 245 23.3813 245 24.512ZM242.44 24.512C242.44 23.2747 242.363 22.296 242.208 21.576C242.048 20.8613 241.827 20.352 241.544 20.048C241.256 19.744 240.915 19.592 240.52 19.592C240.083 19.592 239.723 19.744 239.44 20.048C239.157 20.352 238.947 20.8613 238.808 21.576C238.669 22.296 238.6 23.2747 238.6 24.512C238.6 25.7493 238.669 26.7253 238.808 27.44C238.947 28.16 239.157 28.672 239.44 28.976C239.723 29.28 240.083 29.432 240.52 29.432C240.915 29.432 241.256 29.28 241.544 28.976C241.827 28.672 242.048 28.16 242.208 27.44C242.363 26.7253 242.44 25.7493 242.44 24.512Z" fill="#FEFEFE"/>
<path d="M256.36 21.096C256.36 21.56 256.219 21.9253 255.936 22.192C255.653 22.4587 255.307 22.592 254.896 22.592C254.517 22.592 254.211 22.488 253.976 22.28C253.741 22.0773 253.624 21.8053 253.624 21.464C253.624 21.2613 253.661 21.0987 253.736 20.976C253.811 20.8587 253.899 20.7627 254 20.688C254.101 20.6133 254.189 20.5413 254.264 20.472C254.339 20.408 254.376 20.3307 254.376 20.24C254.376 20.096 254.301 19.9627 254.152 19.84C254.003 19.7173 253.8 19.616 253.544 19.536C253.283 19.4613 252.989 19.424 252.664 19.424C252.173 19.424 251.763 19.5147 251.432 19.696C251.096 19.8827 250.843 20.1467 250.672 20.488C250.501 20.8293 250.416 21.2373 250.416 21.712C250.416 22.0747 250.485 22.4213 250.624 22.752C250.763 23.088 251 23.3733 251.336 23.608C251.667 23.848 252.128 23.9973 252.72 24.056C252.832 24.072 252.931 24.0773 253.016 24.072C253.101 24.0667 253.168 24.0827 253.216 24.12C253.264 24.1627 253.288 24.2507 253.288 24.384V24.984C253.288 25.1173 253.267 25.2027 253.224 25.24C253.176 25.2773 253.112 25.2933 253.032 25.288C252.952 25.288 252.859 25.2933 252.752 25.304C252.32 25.3573 251.971 25.4667 251.704 25.632C251.437 25.7973 251.235 25.9973 251.096 26.232C250.957 26.472 250.864 26.728 250.816 27C250.763 27.2773 250.736 27.5467 250.736 27.808C250.736 28.4 250.904 28.8533 251.24 29.168C251.576 29.4827 252.051 29.64 252.664 29.64C253.032 29.64 253.336 29.5707 253.576 29.432C253.816 29.2933 253.936 29.136 253.936 28.96C253.936 28.8693 253.896 28.792 253.816 28.728C253.736 28.6693 253.643 28.6027 253.536 28.528C253.429 28.4533 253.339 28.3547 253.264 28.232C253.184 28.1147 253.144 27.9493 253.144 27.736C253.144 27.4213 253.267 27.1547 253.512 26.936C253.757 26.7173 254.059 26.608 254.416 26.608C254.651 26.608 254.88 26.6587 255.104 26.76C255.328 26.8613 255.515 27.016 255.664 27.224C255.808 27.432 255.88 27.6987 255.88 28.024C255.88 28.4987 255.739 28.936 255.456 29.336C255.168 29.7413 254.749 30.064 254.2 30.304C253.651 30.5493 252.979 30.672 252.184 30.672C251.469 30.672 250.821 30.5627 250.24 30.344C249.653 30.1307 249.187 29.8107 248.84 29.384C248.493 28.9573 248.32 28.432 248.32 27.808C248.32 27.4347 248.381 27.0667 248.504 26.704C248.627 26.3467 248.837 26.016 249.136 25.712C249.435 25.4133 249.848 25.1627 250.376 24.96C250.611 24.864 250.776 24.8133 250.872 24.808C250.968 24.8027 251.016 24.7653 251.016 24.696C251.016 24.6267 250.963 24.5893 250.856 24.584C250.744 24.584 250.592 24.5547 250.4 24.496C249.525 24.2293 248.907 23.8427 248.544 23.336C248.181 22.8347 248 22.2667 248 21.632C248 21.1147 248.112 20.6507 248.336 20.24C248.555 19.8347 248.864 19.4907 249.264 19.208C249.659 18.9253 250.12 18.712 250.648 18.568C251.176 18.424 251.741 18.352 252.344 18.352C253.219 18.352 253.955 18.48 254.552 18.736C255.149 18.9973 255.6 19.336 255.904 19.752C256.208 20.1733 256.36 20.6213 256.36 21.096Z" fill="#FEFEFE"/>
<path d="M124.96 24.512C124.96 25.6427 124.84 26.6 124.6 27.384C124.36 28.1733 124.029 28.808 123.608 29.288C123.187 29.7733 122.709 30.1253 122.176 30.344C121.637 30.5627 121.072 30.672 120.48 30.672C119.845 30.672 119.256 30.5627 118.712 30.344C118.168 30.1253 117.693 29.7733 117.288 29.288C116.883 28.808 116.568 28.1733 116.344 27.384C116.115 26.6 116 25.6427 116 24.512C116 23.3813 116.128 22.4213 116.384 21.632C116.64 20.848 116.984 20.2133 117.416 19.728C117.843 19.248 118.323 18.8987 118.856 18.68C119.384 18.4613 119.925 18.352 120.48 18.352C121.072 18.352 121.637 18.4613 122.176 18.68C122.709 18.8987 123.187 19.248 123.608 19.728C124.029 20.2133 124.36 20.848 124.6 21.632C124.84 22.4213 124.96 23.3813 124.96 24.512ZM122.4 24.512C122.4 23.2747 122.323 22.296 122.168 21.576C122.008 20.8613 121.787 20.352 121.504 20.048C121.216 19.744 120.875 19.592 120.48 19.592C120.043 19.592 119.683 19.744 119.4 20.048C119.117 20.352 118.907 20.8613 118.768 21.576C118.629 22.296 118.56 23.2747 118.56 24.512C118.56 25.7493 118.629 26.7253 118.768 27.44C118.907 28.16 119.117 28.672 119.4 28.976C119.683 29.28 120.043 29.432 120.48 29.432C120.875 29.432 121.216 29.28 121.504 28.976C121.787 28.672 122.008 28.16 122.168 27.44C122.323 26.7253 122.4 25.7493 122.4 24.512Z" fill="#FEFEFE"/>
<path d="M136.32 21.096C136.32 21.56 136.179 21.9253 135.896 22.192C135.613 22.4587 135.267 22.592 134.856 22.592C134.477 22.592 134.171 22.488 133.936 22.28C133.701 22.0773 133.584 21.8053 133.584 21.464C133.584 21.2613 133.621 21.0987 133.696 20.976C133.771 20.8587 133.859 20.7627 133.96 20.688C134.061 20.6133 134.149 20.5413 134.224 20.472C134.299 20.408 134.336 20.3307 134.336 20.24C134.336 20.096 134.261 19.9627 134.112 19.84C133.963 19.7173 133.76 19.616 133.504 19.536C133.243 19.4613 132.949 19.424 132.624 19.424C132.133 19.424 131.723 19.5147 131.392 19.696C131.056 19.8827 130.803 20.1467 130.632 20.488C130.461 20.8293 130.376 21.2373 130.376 21.712C130.376 22.0747 130.445 22.4213 130.584 22.752C130.723 23.088 130.96 23.3733 131.296 23.608C131.627 23.848 132.088 23.9973 132.68 24.056C132.792 24.072 132.891 24.0773 132.976 24.072C133.061 24.0667 133.128 24.0827 133.176 24.12C133.224 24.1627 133.248 24.2507 133.248 24.384V24.984C133.248 25.1173 133.227 25.2027 133.184 25.24C133.136 25.2773 133.072 25.2933 132.992 25.288C132.912 25.288 132.819 25.2933 132.712 25.304C132.28 25.3573 131.931 25.4667 131.664 25.632C131.397 25.7973 131.195 25.9973 131.056 26.232C130.917 26.472 130.824 26.728 130.776 27C130.723 27.2773 130.696 27.5467 130.696 27.808C130.696 28.4 130.864 28.8533 131.2 29.168C131.536 29.4827 132.011 29.64 132.624 29.64C132.992 29.64 133.296 29.5707 133.536 29.432C133.776 29.2933 133.896 29.136 133.896 28.96C133.896 28.8693 133.856 28.792 133.776 28.728C133.696 28.6693 133.603 28.6027 133.496 28.528C133.389 28.4533 133.299 28.3547 133.224 28.232C133.144 28.1147 133.104 27.9493 133.104 27.736C133.104 27.4213 133.227 27.1547 133.472 26.936C133.717 26.7173 134.019 26.608 134.376 26.608C134.611 26.608 134.84 26.6587 135.064 26.76C135.288 26.8613 135.475 27.016 135.624 27.224C135.768 27.432 135.84 27.6987 135.84 28.024C135.84 28.4987 135.699 28.936 135.416 29.336C135.128 29.7413 134.709 30.064 134.16 30.304C133.611 30.5493 132.939 30.672 132.144 30.672C131.429 30.672 130.781 30.5627 130.2 30.344C129.613 30.1307 129.147 29.8107 128.8 29.384C128.453 28.9573 128.28 28.432 128.28 27.808C128.28 27.4347 128.341 27.0667 128.464 26.704C128.587 26.3467 128.797 26.016 129.096 25.712C129.395 25.4133 129.808 25.1627 130.336 24.96C130.571 24.864 130.736 24.8133 130.832 24.808C130.928 24.8027 130.976 24.7653 130.976 24.696C130.976 24.6267 130.923 24.5893 130.816 24.584C130.704 24.584 130.552 24.5547 130.36 24.496C129.485 24.2293 128.867 23.8427 128.504 23.336C128.141 22.8347 127.96 22.2667 127.96 21.632C127.96 21.1147 128.072 20.6507 128.296 20.24C128.515 19.8347 128.824 19.4907 129.224 19.208C129.619 18.9253 130.08 18.712 130.608 18.568C131.136 18.424 131.701 18.352 132.304 18.352C133.179 18.352 133.915 18.48 134.512 18.736C135.109 18.9973 135.56 19.336 135.864 19.752C136.168 20.1733 136.32 20.6213 136.32 21.096Z" fill="#FEFEFE"/>
<path d="M275 24.512C275 25.6427 274.88 26.6 274.64 27.384C274.4 28.1733 274.069 28.808 273.648 29.288C273.227 29.7733 272.749 30.1253 272.216 30.344C271.677 30.5627 271.112 30.672 270.52 30.672C269.885 30.672 269.296 30.5627 268.752 30.344C268.208 30.1253 267.733 29.7733 267.328 29.288C266.923 28.808 266.608 28.1733 266.384 27.384C266.155 26.6 266.04 25.6427 266.04 24.512C266.04 23.3813 266.168 22.4213 266.424 21.632C266.68 20.848 267.024 20.2133 267.456 19.728C267.883 19.248 268.363 18.8987 268.896 18.68C269.424 18.4613 269.965 18.352 270.52 18.352C271.112 18.352 271.677 18.4613 272.216 18.68C272.749 18.8987 273.227 19.248 273.648 19.728C274.069 20.2133 274.4 20.848 274.64 21.632C274.88 22.4213 275 23.3813 275 24.512ZM272.44 24.512C272.44 23.2747 272.363 22.296 272.208 21.576C272.048 20.8613 271.827 20.352 271.544 20.048C271.256 19.744 270.915 19.592 270.52 19.592C270.083 19.592 269.723 19.744 269.44 20.048C269.157 20.352 268.947 20.8613 268.808 21.576C268.669 22.296 268.6 23.2747 268.6 24.512C268.6 25.7493 268.669 26.7253 268.808 27.44C268.947 28.16 269.157 28.672 269.44 28.976C269.723 29.28 270.083 29.432 270.52 29.432C270.915 29.432 271.256 29.28 271.544 28.976C271.827 28.672 272.048 28.16 272.208 27.44C272.363 26.7253 272.44 25.7493 272.44 24.512Z" fill="#FEFEFE"/>
<path d="M277.998 21.856C277.987 21.0133 278.097 20.3333 278.326 19.816C278.555 19.304 278.883 18.9307 279.31 18.696C279.737 18.4667 280.243 18.352 280.83 18.352C281.278 18.352 281.686 18.4 282.054 18.496C282.417 18.592 282.755 18.704 283.07 18.832C283.379 18.96 283.678 19.072 283.966 19.168C284.249 19.264 284.537 19.312 284.83 19.312C285.065 19.312 285.254 19.2613 285.398 19.16C285.542 19.064 285.657 18.9333 285.742 18.768C285.785 18.6773 285.822 18.6107 285.854 18.568C285.886 18.5307 285.974 18.512 286.118 18.512H286.878C287.001 18.512 287.078 18.5307 287.11 18.568C287.137 18.6053 287.15 18.6827 287.15 18.8C287.129 19.9147 286.835 20.928 286.27 21.84C285.705 22.7573 284.87 23.6027 283.766 24.376C283.467 24.584 283.153 24.8027 282.822 25.032C282.486 25.2613 282.171 25.512 281.878 25.784C281.585 26.056 281.345 26.3573 281.158 26.688C280.971 27.0187 280.878 27.3867 280.878 27.792C280.878 28.4267 281.046 28.8933 281.382 29.192C281.713 29.4907 282.265 29.64 283.038 29.64C283.422 29.64 283.771 29.5893 284.086 29.488C284.395 29.3867 284.643 29.2613 284.83 29.112C285.011 28.968 285.102 28.832 285.102 28.704C285.102 28.624 285.051 28.552 284.95 28.488C284.849 28.4293 284.731 28.36 284.598 28.28C284.459 28.2 284.339 28.0853 284.238 27.936C284.131 27.792 284.078 27.5867 284.078 27.32C284.078 26.904 284.219 26.584 284.502 26.36C284.785 26.1413 285.094 26.032 285.43 26.032C285.665 26.032 285.897 26.0827 286.126 26.184C286.35 26.2853 286.537 26.4427 286.686 26.656C286.83 26.8747 286.902 27.152 286.902 27.488C286.902 28.096 286.721 28.64 286.358 29.12C285.99 29.6 285.481 29.9787 284.83 30.256C284.179 30.5333 283.422 30.672 282.558 30.672C281.267 30.672 280.235 30.424 279.462 29.928C278.689 29.4373 278.302 28.672 278.302 27.632C278.302 27.1093 278.417 26.6507 278.646 26.256C278.87 25.8667 279.179 25.5173 279.574 25.208C279.969 24.8987 280.427 24.6053 280.95 24.328C281.467 24.0507 282.017 23.7653 282.598 23.472C283.318 23.1093 283.899 22.7253 284.342 22.32C284.779 21.92 285.113 21.512 285.342 21.096C285.422 20.9733 285.499 20.8453 285.574 20.712C285.649 20.584 285.702 20.4747 285.734 20.384C285.761 20.2987 285.75 20.256 285.702 20.256C285.617 20.256 285.555 20.3253 285.518 20.464C285.475 20.608 285.366 20.7653 285.19 20.936C285.003 21.1173 284.777 21.2507 284.51 21.336C284.243 21.4213 283.963 21.464 283.67 21.464C283.243 21.464 282.873 21.4053 282.558 21.288C282.238 21.1707 281.923 21.0533 281.614 20.936C281.299 20.8187 280.939 20.76 280.534 20.76C280.086 20.76 279.755 20.8587 279.542 21.056C279.329 21.2533 279.201 21.5227 279.158 21.864C279.142 21.992 279.123 22.0693 279.102 22.096C279.081 22.128 278.998 22.144 278.854 22.144H278.262C278.129 22.144 278.051 22.128 278.03 22.096C278.009 22.0693 277.998 21.9893 277.998 21.856Z" fill="#FEFEFE"/>
<path d="M94.96 24.512C94.96 25.6427 94.84 26.6 94.6 27.384C94.36 28.1733 94.0293 28.808 93.608 29.288C93.1867 29.7733 92.7093 30.1253 92.176 30.344C91.6373 30.5627 91.072 30.672 90.48 30.672C89.8453 30.672 89.256 30.5627 88.712 30.344C88.168 30.1253 87.6933 29.7733 87.288 29.288C86.8827 28.808 86.568 28.1733 86.344 27.384C86.1147 26.6 86 25.6427 86 24.512C86 23.3813 86.128 22.4213 86.384 21.632C86.64 20.848 86.984 20.2133 87.416 19.728C87.8427 19.248 88.3227 18.8987 88.856 18.68C89.384 18.4613 89.9253 18.352 90.48 18.352C91.072 18.352 91.6373 18.4613 92.176 18.68C92.7093 18.8987 93.1867 19.248 93.608 19.728C94.0293 20.2133 94.36 20.848 94.6 21.632C94.84 22.4213 94.96 23.3813 94.96 24.512ZM92.4 24.512C92.4 23.2747 92.3227 22.296 92.168 21.576C92.008 20.8613 91.7867 20.352 91.504 20.048C91.216 19.744 90.8747 19.592 90.48 19.592C90.0427 19.592 89.6827 19.744 89.4 20.048C89.1173 20.352 88.9067 20.8613 88.768 21.576C88.6293 22.296 88.56 23.2747 88.56 24.512C88.56 25.7493 88.6293 26.7253 88.768 27.44C88.9067 28.16 89.1173 28.672 89.4 28.976C89.6827 29.28 90.0427 29.432 90.48 29.432C90.8747 29.432 91.216 29.28 91.504 28.976C91.7867 28.672 92.008 28.16 92.168 27.44C92.3227 26.7253 92.4 25.7493 92.4 24.512Z" fill="#FEFEFE"/>
<path d="M97.958 21.856C97.9473 21.0133 98.0567 20.3333 98.286 19.816C98.5153 19.304 98.8433 18.9307 99.27 18.696C99.6967 18.4667 100.203 18.352 100.79 18.352C101.238 18.352 101.646 18.4 102.014 18.496C102.377 18.592 102.715 18.704 103.03 18.832C103.339 18.96 103.638 19.072 103.926 19.168C104.209 19.264 104.497 19.312 104.79 19.312C105.025 19.312 105.214 19.2613 105.358 19.16C105.502 19.064 105.617 18.9333 105.702 18.768C105.745 18.6773 105.782 18.6107 105.814 18.568C105.846 18.5307 105.934 18.512 106.078 18.512H106.838C106.961 18.512 107.038 18.5307 107.07 18.568C107.097 18.6053 107.11 18.6827 107.11 18.8C107.089 19.9147 106.795 20.928 106.23 21.84C105.665 22.7573 104.83 23.6027 103.726 24.376C103.427 24.584 103.113 24.8027 102.782 25.032C102.446 25.2613 102.131 25.512 101.838 25.784C101.545 26.056 101.305 26.3573 101.118 26.688C100.931 27.0187 100.838 27.3867 100.838 27.792C100.838 28.4267 101.006 28.8933 101.342 29.192C101.673 29.4907 102.225 29.64 102.998 29.64C103.382 29.64 103.731 29.5893 104.046 29.488C104.355 29.3867 104.603 29.2613 104.79 29.112C104.971 28.968 105.062 28.832 105.062 28.704C105.062 28.624 105.011 28.552 104.91 28.488C104.809 28.4293 104.691 28.36 104.558 28.28C104.419 28.2 104.299 28.0853 104.198 27.936C104.091 27.792 104.038 27.5867 104.038 27.32C104.038 26.904 104.179 26.584 104.462 26.36C104.745 26.1413 105.054 26.032 105.39 26.032C105.625 26.032 105.857 26.0827 106.086 26.184C106.31 26.2853 106.497 26.4427 106.646 26.656C106.79 26.8747 106.862 27.152 106.862 27.488C106.862 28.096 106.681 28.64 106.318 29.12C105.95 29.6 105.441 29.9787 104.79 30.256C104.139 30.5333 103.382 30.672 102.518 30.672C101.227 30.672 100.195 30.424 99.422 29.928C98.6487 29.4373 98.262 28.672 98.262 27.632C98.262 27.1093 98.3767 26.6507 98.606 26.256C98.83 25.8667 99.1393 25.5173 99.534 25.208C99.9287 24.8987 100.387 24.6053 100.91 24.328C101.427 24.0507 101.977 23.7653 102.558 23.472C103.278 23.1093 103.859 22.7253 104.302 22.32C104.739 21.92 105.073 21.512 105.302 21.096C105.382 20.9733 105.459 20.8453 105.534 20.712C105.609 20.584 105.662 20.4747 105.694 20.384C105.721 20.2987 105.71 20.256 105.662 20.256C105.577 20.256 105.515 20.3253 105.478 20.464C105.435 20.608 105.326 20.7653 105.15 20.936C104.963 21.1173 104.737 21.2507 104.47 21.336C104.203 21.4213 103.923 21.464 103.63 21.464C103.203 21.464 102.833 21.4053 102.518 21.288C102.198 21.1707 101.883 21.0533 101.574 20.936C101.259 20.8187 100.899 20.76 100.494 20.76C100.046 20.76 99.7153 20.8587 99.502 21.056C99.2887 21.2533 99.1607 21.5227 99.118 21.864C99.102 21.992 99.0833 22.0693 99.062 22.096C99.0407 22.128 98.958 22.144 98.814 22.144H98.222C98.0887 22.144 98.0113 22.128 97.99 22.096C97.9687 22.0693 97.958 21.9893 97.958 21.856Z" fill="#FEFEFE"/>
<path d="M305 24.512C305 25.6427 304.88 26.6 304.64 27.384C304.4 28.1733 304.069 28.808 303.648 29.288C303.227 29.7733 302.749 30.1253 302.216 30.344C301.677 30.5627 301.112 30.672 300.52 30.672C299.885 30.672 299.296 30.5627 298.752 30.344C298.208 30.1253 297.733 29.7733 297.328 29.288C296.923 28.808 296.608 28.1733 296.384 27.384C296.155 26.6 296.04 25.6427 296.04 24.512C296.04 23.3813 296.168 22.4213 296.424 21.632C296.68 20.848 297.024 20.2133 297.456 19.728C297.883 19.248 298.363 18.8987 298.896 18.68C299.424 18.4613 299.965 18.352 300.52 18.352C301.112 18.352 301.677 18.4613 302.216 18.68C302.749 18.8987 303.227 19.248 303.648 19.728C304.069 20.2133 304.4 20.848 304.64 21.632C304.88 22.4213 305 23.3813 305 24.512ZM302.44 24.512C302.44 23.2747 302.363 22.296 302.208 21.576C302.048 20.8613 301.827 20.352 301.544 20.048C301.256 19.744 300.915 19.592 300.52 19.592C300.083 19.592 299.723 19.744 299.44 20.048C299.157 20.352 298.947 20.8613 298.808 21.576C298.669 22.296 298.6 23.2747 298.6 24.512C298.6 25.7493 298.669 26.7253 298.808 27.44C298.947 28.16 299.157 28.672 299.44 28.976C299.723 29.28 300.083 29.432 300.52 29.432C300.915 29.432 301.256 29.28 301.544 28.976C301.827 28.672 302.048 28.16 302.208 27.44C302.363 26.7253 302.44 25.7493 302.44 24.512Z" fill="#FEFEFE"/>
<path d="M315.6 18.7575V19.3111C315.6 19.4514 315.577 19.5346 315.53 19.5606C315.478 19.5866 315.382 19.5996 315.241 19.5996H313.214C313.048 19.5996 312.944 19.623 312.902 19.6698C312.855 19.7166 312.832 19.8179 312.832 19.9739V27.1086C312.832 27.2541 312.853 27.3503 312.894 27.3971C312.931 27.449 313.022 27.475 313.167 27.475H314.992C315.111 27.475 315.2 27.488 315.257 27.514C315.309 27.5452 315.335 27.6258 315.335 27.7557V28.3406C315.335 28.5225 315.299 28.6317 315.226 28.6681C315.148 28.7044 315.026 28.7252 314.859 28.7304C314.371 28.7356 313.942 28.772 313.573 28.8396C313.198 28.9072 312.871 29.0527 312.59 29.2763C312.304 29.505 312.044 29.8559 311.81 30.3289C311.758 30.4381 311.712 30.5212 311.67 30.5784C311.628 30.6408 311.525 30.672 311.358 30.672H310.914C310.784 30.672 310.695 30.6564 310.649 30.6252C310.597 30.5992 310.571 30.5213 310.571 30.3913V20.0207C310.571 19.8283 310.545 19.7088 310.493 19.662C310.435 19.6204 310.306 19.5996 310.103 19.5996H308.372C308.257 19.5996 308.166 19.5866 308.099 19.5606C308.031 19.5346 307.997 19.4566 307.997 19.3267V18.7419C307.997 18.5807 308.013 18.4742 308.044 18.4222C308.075 18.3754 308.169 18.352 308.325 18.352H315.21C315.382 18.352 315.491 18.3754 315.538 18.4222C315.579 18.469 315.6 18.5807 315.6 18.7575Z" fill="#FEFEFE"/>
<path d="M64.96 24.512C64.96 25.6427 64.84 26.6 64.6 27.384C64.36 28.1733 64.0293 28.808 63.608 29.288C63.1867 29.7733 62.7093 30.1253 62.176 30.344C61.6373 30.5627 61.072 30.672 60.48 30.672C59.8453 30.672 59.256 30.5627 58.712 30.344C58.168 30.1253 57.6933 29.7733 57.288 29.288C56.8827 28.808 56.568 28.1733 56.344 27.384C56.1147 26.6 56 25.6427 56 24.512C56 23.3813 56.128 22.4213 56.384 21.632C56.64 20.848 56.984 20.2133 57.416 19.728C57.8427 19.248 58.3227 18.8987 58.856 18.68C59.384 18.4613 59.9253 18.352 60.48 18.352C61.072 18.352 61.6373 18.4613 62.176 18.68C62.7093 18.8987 63.1867 19.248 63.608 19.728C64.0293 20.2133 64.36 20.848 64.6 21.632C64.84 22.4213 64.96 23.3813 64.96 24.512ZM62.4 24.512C62.4 23.2747 62.3227 22.296 62.168 21.576C62.008 20.8613 61.7867 20.352 61.504 20.048C61.216 19.744 60.8747 19.592 60.48 19.592C60.0427 19.592 59.6827 19.744 59.4 20.048C59.1173 20.352 58.9067 20.8613 58.768 21.576C58.6293 22.296 58.56 23.2747 58.56 24.512C58.56 25.7493 58.6293 26.7253 58.768 27.44C58.9067 28.16 59.1173 28.672 59.4 28.976C59.6827 29.28 60.0427 29.432 60.48 29.432C60.8747 29.432 61.216 29.28 61.504 28.976C61.7867 28.672 62.008 28.16 62.168 27.44C62.3227 26.7253 62.4 25.7493 62.4 24.512Z" fill="#FEFEFE"/>
<path d="M75.56 18.7575V19.3111C75.56 19.4514 75.5366 19.5346 75.4898 19.5606C75.4378 19.5866 75.3417 19.5996 75.2013 19.5996H73.174C73.0076 19.5996 72.9037 19.623 72.8621 19.6698C72.8153 19.7166 72.7919 19.8179 72.7919 19.9739V27.1086C72.7919 27.2541 72.8127 27.3503 72.8543 27.3971C72.8907 27.449 72.9816 27.475 73.1272 27.475H74.9518C75.0714 27.475 75.1597 27.488 75.2169 27.514C75.2689 27.5452 75.2949 27.6258 75.2949 27.7557V28.3406C75.2949 28.5225 75.2585 28.6317 75.1857 28.6681C75.1077 28.7044 74.9856 28.7252 74.8192 28.7304C74.3306 28.7356 73.9017 28.772 73.5327 28.8396C73.1584 28.9072 72.8309 29.0527 72.5502 29.2763C72.2643 29.505 72.0044 29.8559 71.7704 30.3289C71.7184 30.4381 71.6717 30.5212 71.6301 30.5784C71.5885 30.6408 71.4845 30.672 71.3182 30.672H70.8737C70.7438 30.672 70.6554 30.6564 70.6086 30.6252C70.5566 30.5992 70.5306 30.5213 70.5306 30.3913V20.0207C70.5306 19.8283 70.5046 19.7088 70.4527 19.662C70.3955 19.6204 70.2655 19.5996 70.0628 19.5996H68.3317C68.2174 19.5996 68.1264 19.5866 68.0588 19.5606C67.9913 19.5346 67.9575 19.4566 67.9575 19.3267V18.7419C67.9575 18.5807 67.9731 18.4742 68.0043 18.4222C68.0354 18.3754 68.129 18.352 68.285 18.352H75.1701C75.3417 18.352 75.4508 18.3754 75.4976 18.4222C75.5392 18.469 75.56 18.5807 75.56 18.7575Z" fill="#FEFEFE"/>
<path d="M320 24.172L317.75 25.471V22.873L320 24.172Z" fill="#FEFEFE"/>
<path d="M290 24.172L287.75 25.471V22.873L290 24.172Z" fill="#FEFEFE"/>
<path d="M260 24.172L257.75 25.471V22.873L260 24.172Z" fill="#FEFEFE"/>
<path d="M230 24.172L227.75 25.471V22.873L230 24.172Z" fill="#FEFEFE"/>
<path d="M143 24.172L145.25 25.471V22.873L143 24.172Z" fill="#FEFEFE"/>
<path d="M113 24.172L115.25 25.471V22.873L113 24.172Z" fill="#FEFEFE"/>
<path d="M83 24.172L85.25 25.471V22.873L83 24.172Z" fill="#FEFEFE"/>
<path d="M53 24.172L55.25 25.471V22.873L53 24.172Z" fill="#FEFEFE"/>
<path d="M158.19 19.504V18.76C158.19 18.648 158.208 18.5787 158.246 18.552C158.283 18.5253 158.36 18.512 158.478 18.512H163.278C163.422 18.512 163.518 18.528 163.566 18.56C163.608 18.5973 163.63 18.688 163.63 18.832V19.48C163.63 19.608 163.614 19.6907 163.582 19.728C163.544 19.7707 163.462 19.792 163.334 19.792H162.214C162.08 19.792 161.998 19.8107 161.966 19.848C161.928 19.8853 161.91 19.9707 161.91 20.104V21.624C161.91 21.7947 161.926 21.8987 161.958 21.936C161.99 21.9733 162.091 21.992 162.262 21.992H166.262C166.406 21.992 166.499 22.0053 166.542 22.032C166.584 22.064 166.635 22.1173 166.694 22.192L166.926 22.528C166.984 22.6133 167.008 22.68 166.998 22.728C166.982 22.7813 166.952 22.8533 166.91 22.944C166.675 23.4613 166.368 23.9387 165.99 24.376C165.611 24.8133 165.206 25.24 164.774 25.656C164.336 26.072 163.907 26.4987 163.486 26.936C163.064 27.3733 162.688 27.8453 162.358 28.352C162.022 28.864 161.771 29.4373 161.606 30.072C161.568 30.2213 161.536 30.3307 161.51 30.4C161.478 30.4747 161.363 30.512 161.166 30.512H159.654C159.462 30.512 159.342 30.4907 159.294 30.448C159.246 30.4107 159.235 30.3067 159.262 30.136C159.352 29.496 159.563 28.9253 159.894 28.424C160.219 27.9227 160.611 27.4667 161.07 27.056C161.523 26.6507 161.998 26.2667 162.494 25.904C162.984 25.5467 163.448 25.1947 163.886 24.848C164.323 24.5013 164.683 24.136 164.966 23.752C165.024 23.672 165.067 23.5947 165.094 23.52C165.115 23.4507 165.096 23.392 165.038 23.344C164.979 23.296 164.859 23.272 164.678 23.272H162.134C162.022 23.272 161.958 23.2907 161.942 23.328C161.92 23.3653 161.91 23.44 161.91 23.552V24.232C161.91 24.392 161.891 24.488 161.854 24.52C161.811 24.552 161.742 24.5973 161.646 24.656C161.416 24.8 161.192 24.976 160.974 25.184C160.755 25.3973 160.576 25.6773 160.438 26.024C160.406 26.0987 160.376 26.1573 160.35 26.2C160.323 26.248 160.254 26.272 160.142 26.272H159.854C159.736 26.272 159.664 26.256 159.638 26.224C159.606 26.1973 159.59 26.128 159.59 26.016V23.68C159.59 23.5413 159.568 23.4373 159.526 23.368C159.483 23.304 159.387 23.272 159.238 23.272H158.214C158.096 23.272 158.024 23.2533 157.998 23.216C157.966 23.1787 157.95 23.1013 157.95 22.984V22.336C157.95 22.192 157.968 22.0987 158.006 22.056C158.038 22.0133 158.128 21.992 158.278 21.992H159.23C159.374 21.992 159.47 21.9707 159.518 21.928C159.566 21.8853 159.59 21.7893 159.59 21.64V20.144C159.59 19.9947 159.568 19.8987 159.526 19.856C159.483 19.8133 159.384 19.792 159.23 19.792H158.502C158.374 19.792 158.291 19.776 158.254 19.744C158.211 19.7173 158.19 19.6373 158.19 19.504Z" fill="#FEFEFE"/>
<path d="M154.95 24.512C154.95 25.6427 154.83 26.6 154.59 27.384C154.35 28.1733 154.019 28.808 153.598 29.288C153.176 29.7733 152.699 30.1253 152.166 30.344C151.627 30.5627 151.062 30.672 150.47 30.672C149.835 30.672 149.246 30.5627 148.702 30.344C148.158 30.1253 147.683 29.7733 147.278 29.288C146.872 28.808 146.558 28.1733 146.334 27.384C146.104 26.6 145.99 25.6427 145.99 24.512C145.99 23.3813 146.118 22.4213 146.374 21.632C146.63 20.848 146.974 20.2133 147.406 19.728C147.832 19.248 148.312 18.8987 148.846 18.68C149.374 18.4613 149.915 18.352 150.47 18.352C151.062 18.352 151.627 18.4613 152.166 18.68C152.699 18.8987 153.176 19.248 153.598 19.728C154.019 20.2133 154.35 20.848 154.59 21.632C154.83 22.4213 154.95 23.3813 154.95 24.512ZM152.39 24.512C152.39 23.2747 152.312 22.296 152.158 21.576C151.998 20.8613 151.776 20.352 151.494 20.048C151.206 19.744 150.864 19.592 150.47 19.592C150.032 19.592 149.672 19.744 149.39 20.048C149.107 20.352 148.896 20.8613 148.758 21.576C148.619 22.296 148.55 23.2747 148.55 24.512C148.55 25.7493 148.619 26.7253 148.758 27.44C148.896 28.16 149.107 28.672 149.39 28.976C149.672 29.28 150.032 29.432 150.47 29.432C150.864 29.432 151.206 29.28 151.494 28.976C151.776 28.672 151.998 28.16 152.158 27.44C152.312 26.7253 152.39 25.7493 152.39 24.512Z" fill="#FEFEFE"/>
<path d="M218.247 19.664V18.92C218.247 18.808 218.266 18.7387 218.303 18.712C218.341 18.6853 218.418 18.672 218.535 18.672H223.335C223.479 18.672 223.575 18.688 223.623 18.72C223.666 18.7573 223.687 18.848 223.687 18.992V19.64C223.687 19.768 223.671 19.8507 223.639 19.888C223.602 19.9307 223.519 19.952 223.391 19.952H222.271C222.138 19.952 222.055 19.9707 222.023 20.008C221.986 20.0453 221.967 20.1307 221.967 20.264V21.784C221.967 21.9547 221.983 22.0587 222.015 22.096C222.047 22.1333 222.149 22.152 222.319 22.152H226.319C226.463 22.152 226.557 22.1653 226.599 22.192C226.642 22.224 226.693 22.2773 226.751 22.352L226.983 22.688C227.042 22.7733 227.066 22.84 227.055 22.888C227.039 22.9413 227.01 23.0133 226.967 23.104C226.733 23.6213 226.426 24.0987 226.047 24.536C225.669 24.9733 225.263 25.4 224.831 25.816C224.394 26.232 223.965 26.6587 223.543 27.096C223.122 27.5333 222.746 28.0053 222.415 28.512C222.079 29.024 221.829 29.5973 221.663 30.232C221.626 30.3813 221.594 30.4907 221.567 30.56C221.535 30.6347 221.421 30.672 221.223 30.672H219.711C219.519 30.672 219.399 30.6507 219.351 30.608C219.303 30.5707 219.293 30.4667 219.319 30.296C219.41 29.656 219.621 29.0853 219.951 28.584C220.277 28.0827 220.669 27.6267 221.127 27.216C221.581 26.8107 222.055 26.4267 222.551 26.064C223.042 25.7067 223.506 25.3547 223.943 25.008C224.381 24.6613 224.741 24.296 225.023 23.912C225.082 23.832 225.125 23.7547 225.151 23.68C225.173 23.6107 225.154 23.552 225.095 23.504C225.037 23.456 224.917 23.432 224.735 23.432H222.191C222.079 23.432 222.015 23.4507 221.999 23.488C221.978 23.5253 221.967 23.6 221.967 23.712V24.392C221.967 24.552 221.949 24.648 221.911 24.68C221.869 24.712 221.799 24.7573 221.703 24.816C221.474 24.96 221.25 25.136 221.031 25.344C220.813 25.5573 220.634 25.8373 220.495 26.184C220.463 26.2587 220.434 26.3173 220.407 26.36C220.381 26.408 220.311 26.432 220.199 26.432H219.911C219.794 26.432 219.722 26.416 219.695 26.384C219.663 26.3573 219.647 26.288 219.647 26.176V23.84C219.647 23.7013 219.626 23.5973 219.583 23.528C219.541 23.464 219.445 23.432 219.295 23.432H218.271C218.154 23.432 218.082 23.4133 218.055 23.376C218.023 23.3387 218.007 23.2613 218.007 23.144V22.496C218.007 22.352 218.026 22.2587 218.063 22.216C218.095 22.1733 218.186 22.152 218.335 22.152H219.287C219.431 22.152 219.527 22.1307 219.575 22.088C219.623 22.0453 219.647 21.9493 219.647 21.8V20.304C219.647 20.1547 219.626 20.0587 219.583 20.016C219.541 19.9733 219.442 19.952 219.287 19.952H218.559C218.431 19.952 218.349 19.936 218.311 19.904C218.269 19.8773 218.247 19.7973 218.247 19.664Z" fill="#FEFEFE"/>
<path d="M215.007 24.672C215.007 25.8027 214.887 26.76 214.647 27.544C214.407 28.3333 214.077 28.968 213.655 29.448C213.234 29.9333 212.757 30.2853 212.223 30.504C211.685 30.7227 211.119 30.832 210.527 30.832C209.893 30.832 209.303 30.7227 208.759 30.504C208.215 30.2853 207.741 29.9333 207.335 29.448C206.93 28.968 206.615 28.3333 206.391 27.544C206.162 26.76 206.047 25.8027 206.047 24.672C206.047 23.5413 206.175 22.5813 206.431 21.792C206.687 21.008 207.031 20.3733 207.463 19.888C207.89 19.408 208.37 19.0587 208.903 18.84C209.431 18.6213 209.973 18.512 210.527 18.512C211.119 18.512 211.685 18.6213 212.223 18.84C212.757 19.0587 213.234 19.408 213.655 19.888C214.077 20.3733 214.407 21.008 214.647 21.792C214.887 22.5813 215.007 23.5413 215.007 24.672ZM212.447 24.672C212.447 23.4347 212.37 22.456 212.215 21.736C212.055 21.0213 211.834 20.512 211.551 20.208C211.263 19.904 210.922 19.752 210.527 19.752C210.09 19.752 209.73 19.904 209.447 20.208C209.165 20.512 208.954 21.0213 208.815 21.736C208.677 22.456 208.607 23.4347 208.607 24.672C208.607 25.9093 208.677 26.8853 208.815 27.6C208.954 28.32 209.165 28.832 209.447 29.136C209.73 29.44 210.09 29.592 210.527 29.592C210.922 29.592 211.263 29.44 211.551 29.136C211.834 28.832 212.055 28.32 212.215 27.6C212.37 26.8853 212.447 25.9093 212.447 24.672Z" fill="#FEFEFE"/>
<path d="M196.36 20.544C196.36 21.0293 196.216 21.392 195.928 21.632C195.64 21.8773 195.309 22 194.936 22C194.579 22 194.277 21.8907 194.032 21.672C193.787 21.4587 193.664 21.192 193.664 20.872C193.664 20.6533 193.712 20.4773 193.808 20.344C193.899 20.2107 193.989 20.0907 194.08 19.984C194.171 19.8827 194.216 19.7707 194.216 19.648C194.216 19.456 194.091 19.2987 193.84 19.176C193.589 19.0533 193.277 18.992 192.904 18.992C192.429 18.992 192.005 19.1307 191.632 19.408C191.253 19.6853 190.957 20.0533 190.744 20.512C190.525 20.976 190.416 21.4853 190.416 22.04C190.416 22.6907 190.512 23.2347 190.704 23.672C190.896 24.1147 191.152 24.448 191.472 24.672C191.792 24.9013 192.149 25.016 192.544 25.016C192.928 25.016 193.288 24.936 193.624 24.776C193.955 24.6213 194.269 24.36 194.568 23.992C194.632 23.912 194.693 23.8507 194.752 23.808C194.811 23.7707 194.917 23.752 195.072 23.752H195.496C195.677 23.752 195.779 23.784 195.8 23.848C195.816 23.9173 195.816 24.0267 195.8 24.176L195.096 29.848C195.08 29.9867 195.048 30.072 195 30.104C194.947 30.1413 194.845 30.16 194.696 30.16H192.248C191.683 30.16 191.243 30.1467 190.928 30.12C190.608 30.0933 190.355 30.0987 190.168 30.136C189.981 30.1787 189.805 30.2933 189.64 30.48C189.592 30.528 189.547 30.5707 189.504 30.608C189.456 30.6507 189.376 30.672 189.264 30.672H188.616C188.467 30.672 188.405 30.6133 188.432 30.496L188.512 30.16C188.581 29.8347 188.675 29.5333 188.792 29.256C188.904 28.984 189.101 28.7467 189.384 28.544C189.661 28.3467 190.077 28.192 190.632 28.08C191.181 27.9733 191.931 27.92 192.88 27.92H193.96C194.093 27.92 194.184 27.9013 194.232 27.864C194.275 27.8267 194.307 27.7467 194.328 27.624L194.576 25.744C194.597 25.5733 194.627 25.4267 194.664 25.304C194.696 25.1867 194.696 25.12 194.664 25.104C194.605 25.072 194.552 25.0987 194.504 25.184C194.451 25.2747 194.357 25.3733 194.224 25.48C193.968 25.672 193.659 25.832 193.296 25.96C192.928 26.0933 192.493 26.16 191.992 26.16C191.107 26.16 190.368 25.9813 189.776 25.624C189.184 25.272 188.741 24.792 188.448 24.184C188.149 23.5813 188 22.9067 188 22.16C188 21.3067 188.205 20.568 188.616 19.944C189.021 19.32 189.576 18.84 190.28 18.504C190.984 18.168 191.779 18 192.664 18C193.395 18 194.04 18.1093 194.6 18.328C195.155 18.552 195.587 18.8533 195.896 19.232C196.205 19.616 196.36 20.0533 196.36 20.544Z" fill="#FEFEFE"/>
<path d="M185 24.16C185 25.2907 184.88 26.248 184.64 27.032C184.4 27.8213 184.069 28.456 183.648 28.936C183.227 29.4213 182.749 29.7733 182.216 29.992C181.677 30.2107 181.112 30.32 180.52 30.32C179.885 30.32 179.296 30.2107 178.752 29.992C178.208 29.7733 177.733 29.4213 177.328 28.936C176.923 28.456 176.608 27.8213 176.384 27.032C176.155 26.248 176.04 25.2907 176.04 24.16C176.04 23.0293 176.168 22.0693 176.424 21.28C176.68 20.496 177.024 19.8613 177.456 19.376C177.883 18.896 178.363 18.5467 178.896 18.328C179.424 18.1093 179.965 18 180.52 18C181.112 18 181.677 18.1093 182.216 18.328C182.749 18.5467 183.227 18.896 183.648 19.376C184.069 19.8613 184.4 20.496 184.64 21.28C184.88 22.0693 185 23.0293 185 24.16ZM182.44 24.16C182.44 22.9227 182.363 21.944 182.208 21.224C182.048 20.5093 181.827 20 181.544 19.696C181.256 19.392 180.915 19.24 180.52 19.24C180.083 19.24 179.723 19.392 179.44 19.696C179.157 20 178.947 20.5093 178.808 21.224C178.669 21.944 178.6 22.9227 178.6 24.16C178.6 25.3973 178.669 26.3733 178.808 27.088C178.947 27.808 179.157 28.32 179.44 28.624C179.723 28.928 180.083 29.08 180.52 29.08C180.915 29.08 181.256 28.928 181.544 28.624C181.827 28.32 182.048 27.808 182.208 27.088C182.363 26.3733 182.44 25.3973 182.44 24.16Z" fill="#FEFEFE"/>
<path d="M128 147.32C128 146.189 128.12 145.232 128.36 144.448C128.6 143.659 128.931 143.024 129.352 142.544C129.773 142.059 130.251 141.707 130.784 141.488C131.323 141.269 131.888 141.16 132.48 141.16C133.115 141.16 133.704 141.269 134.248 141.488C134.792 141.707 135.267 142.059 135.672 142.544C136.077 143.024 136.392 143.659 136.616 144.448C136.845 145.232 136.96 146.189 136.96 147.32C136.96 148.451 136.832 149.411 136.576 150.2C136.32 150.984 135.976 151.619 135.544 152.104C135.117 152.584 134.637 152.933 134.104 153.152C133.576 153.371 133.035 153.48 132.48 153.48C131.888 153.48 131.323 153.371 130.784 153.152C130.251 152.933 129.773 152.584 129.352 152.104C128.931 151.619 128.6 150.984 128.36 150.2C128.12 149.411 128 148.451 128 147.32ZM130.56 147.32C130.56 148.557 130.637 149.536 130.792 150.256C130.952 150.971 131.173 151.48 131.456 151.784C131.744 152.088 132.085 152.24 132.48 152.24C132.917 152.24 133.277 152.088 133.56 151.784C133.843 151.48 134.053 150.971 134.192 150.256C134.331 149.536 134.4 148.557 134.4 147.32C134.4 146.083 134.331 145.107 134.192 144.392C134.053 143.672 133.843 143.16 133.56 142.856C133.277 142.552 132.917 142.4 132.48 142.4C132.085 142.4 131.744 142.552 131.456 142.856C131.173 143.16 130.952 143.672 130.792 144.392C130.637 145.107 130.56 146.083 130.56 147.32Z" fill="#FEFEFE"/>
<path d="M116.64 150.736C116.64 150.272 116.781 149.907 117.064 149.64C117.347 149.373 117.693 149.24 118.104 149.24C118.483 149.24 118.789 149.344 119.024 149.552C119.259 149.755 119.376 150.027 119.376 150.368C119.376 150.571 119.339 150.733 119.264 150.856C119.189 150.973 119.101 151.069 119 151.144C118.899 151.219 118.811 151.291 118.736 151.36C118.661 151.424 118.624 151.501 118.624 151.592C118.624 151.736 118.699 151.869 118.848 151.992C118.997 152.115 119.2 152.216 119.456 152.296C119.717 152.371 120.011 152.408 120.336 152.408C120.827 152.408 121.237 152.317 121.568 152.136C121.904 151.949 122.157 151.685 122.328 151.344C122.499 151.003 122.584 150.595 122.584 150.12C122.584 149.757 122.515 149.411 122.376 149.08C122.237 148.744 122 148.459 121.664 148.224C121.333 147.984 120.872 147.835 120.28 147.776C120.168 147.76 120.069 147.755 119.984 147.76C119.899 147.765 119.832 147.749 119.784 147.712C119.736 147.669 119.712 147.581 119.712 147.448V146.848C119.712 146.715 119.733 146.629 119.776 146.592C119.824 146.555 119.888 146.539 119.968 146.544C120.048 146.544 120.141 146.539 120.248 146.528C120.68 146.475 121.029 146.365 121.296 146.2C121.563 146.035 121.765 145.835 121.904 145.6C122.043 145.36 122.136 145.104 122.184 144.832C122.237 144.555 122.264 144.285 122.264 144.024C122.264 143.432 122.096 142.979 121.76 142.664C121.424 142.349 120.949 142.192 120.336 142.192C119.968 142.192 119.664 142.261 119.424 142.4C119.184 142.539 119.064 142.696 119.064 142.872C119.064 142.963 119.104 143.04 119.184 143.104C119.264 143.163 119.357 143.229 119.464 143.304C119.571 143.379 119.661 143.477 119.736 143.6C119.816 143.717 119.856 143.883 119.856 144.096C119.856 144.411 119.733 144.677 119.488 144.896C119.243 145.115 118.941 145.224 118.584 145.224C118.349 145.224 118.12 145.173 117.896 145.072C117.672 144.971 117.485 144.816 117.336 144.608C117.192 144.4 117.12 144.133 117.12 143.808C117.12 143.333 117.261 142.896 117.544 142.496C117.832 142.091 118.251 141.768 118.8 141.528C119.349 141.283 120.021 141.16 120.816 141.16C121.531 141.16 122.179 141.269 122.76 141.488C123.347 141.701 123.813 142.021 124.16 142.448C124.507 142.875 124.68 143.4 124.68 144.024C124.68 144.397 124.619 144.765 124.496 145.128C124.373 145.485 124.163 145.816 123.864 146.12C123.565 146.419 123.152 146.669 122.624 146.872C122.389 146.968 122.224 147.019 122.128 147.024C122.032 147.029 121.984 147.067 121.984 147.136C121.984 147.205 122.037 147.243 122.144 147.248C122.256 147.248 122.408 147.277 122.6 147.336C123.475 147.603 124.093 147.989 124.456 148.496C124.819 148.997 125 149.565 125 150.2C125 150.717 124.888 151.181 124.664 151.592C124.445 151.997 124.136 152.341 123.736 152.624C123.341 152.907 122.88 153.12 122.352 153.264C121.824 153.408 121.259 153.48 120.656 153.48C119.781 153.48 119.045 153.352 118.448 153.096C117.851 152.835 117.4 152.496 117.096 152.08C116.792 151.659 116.64 151.211 116.64 150.736Z" fill="#FEFEFE"/>
<path d="M248.04 147.32C248.04 146.189 248.16 145.232 248.4 144.448C248.64 143.659 248.971 143.024 249.392 142.544C249.813 142.059 250.291 141.707 250.824 141.488C251.363 141.269 251.928 141.16 252.52 141.16C253.155 141.16 253.744 141.269 254.288 141.488C254.832 141.707 255.307 142.059 255.712 142.544C256.117 143.024 256.432 143.659 256.656 144.448C256.885 145.232 257 146.189 257 147.32C257 148.451 256.872 149.411 256.616 150.2C256.36 150.984 256.016 151.619 255.584 152.104C255.157 152.584 254.677 152.933 254.144 153.152C253.616 153.371 253.075 153.48 252.52 153.48C251.928 153.48 251.363 153.371 250.824 153.152C250.291 152.933 249.813 152.584 249.392 152.104C248.971 151.619 248.64 150.984 248.4 150.2C248.16 149.411 248.04 148.451 248.04 147.32ZM250.6 147.32C250.6 148.557 250.677 149.536 250.832 150.256C250.992 150.971 251.213 151.48 251.496 151.784C251.784 152.088 252.125 152.24 252.52 152.24C252.957 152.24 253.317 152.088 253.6 151.784C253.883 151.48 254.093 150.971 254.232 150.256C254.371 149.536 254.44 148.557 254.44 147.32C254.44 146.083 254.371 145.107 254.232 144.392C254.093 143.672 253.883 143.16 253.6 142.856C253.317 142.552 252.957 142.4 252.52 142.4C252.125 142.4 251.784 142.552 251.496 142.856C251.213 143.16 250.992 143.672 250.832 144.392C250.677 145.107 250.6 146.083 250.6 147.32Z" fill="#FEFEFE"/>
<path d="M236.68 150.736C236.68 150.272 236.821 149.907 237.104 149.64C237.387 149.373 237.733 149.24 238.144 149.24C238.523 149.24 238.829 149.344 239.064 149.552C239.299 149.755 239.416 150.027 239.416 150.368C239.416 150.571 239.379 150.733 239.304 150.856C239.229 150.973 239.141 151.069 239.04 151.144C238.939 151.219 238.851 151.291 238.776 151.36C238.701 151.424 238.664 151.501 238.664 151.592C238.664 151.736 238.739 151.869 238.888 151.992C239.037 152.115 239.24 152.216 239.496 152.296C239.757 152.371 240.051 152.408 240.376 152.408C240.867 152.408 241.277 152.317 241.608 152.136C241.944 151.949 242.197 151.685 242.368 151.344C242.539 151.003 242.624 150.595 242.624 150.12C242.624 149.757 242.555 149.411 242.416 149.08C242.277 148.744 242.04 148.459 241.704 148.224C241.373 147.984 240.912 147.835 240.32 147.776C240.208 147.76 240.109 147.755 240.024 147.76C239.939 147.765 239.872 147.749 239.824 147.712C239.776 147.669 239.752 147.581 239.752 147.448V146.848C239.752 146.715 239.773 146.629 239.816 146.592C239.864 146.555 239.928 146.539 240.008 146.544C240.088 146.544 240.181 146.539 240.288 146.528C240.72 146.475 241.069 146.365 241.336 146.2C241.603 146.035 241.805 145.835 241.944 145.6C242.083 145.36 242.176 145.104 242.224 144.832C242.277 144.555 242.304 144.285 242.304 144.024C242.304 143.432 242.136 142.979 241.8 142.664C241.464 142.349 240.989 142.192 240.376 142.192C240.008 142.192 239.704 142.261 239.464 142.4C239.224 142.539 239.104 142.696 239.104 142.872C239.104 142.963 239.144 143.04 239.224 143.104C239.304 143.163 239.397 143.229 239.504 143.304C239.611 143.379 239.701 143.477 239.776 143.6C239.856 143.717 239.896 143.883 239.896 144.096C239.896 144.411 239.773 144.677 239.528 144.896C239.283 145.115 238.981 145.224 238.624 145.224C238.389 145.224 238.16 145.173 237.936 145.072C237.712 144.971 237.525 144.816 237.376 144.608C237.232 144.4 237.16 144.133 237.16 143.808C237.16 143.333 237.301 142.896 237.584 142.496C237.872 142.091 238.291 141.768 238.84 141.528C239.389 141.283 240.061 141.16 240.856 141.16C241.571 141.16 242.219 141.269 242.8 141.488C243.387 141.701 243.853 142.021 244.2 142.448C244.547 142.875 244.72 143.4 244.72 144.024C244.72 144.397 244.659 144.765 244.536 145.128C244.413 145.485 244.203 145.816 243.904 146.12C243.605 146.419 243.192 146.669 242.664 146.872C242.429 146.968 242.264 147.019 242.168 147.024C242.072 147.029 242.024 147.067 242.024 147.136C242.024 147.205 242.077 147.243 242.184 147.248C242.296 147.248 242.448 147.277 242.64 147.336C243.515 147.603 244.133 147.989 244.496 148.496C244.859 148.997 245.04 149.565 245.04 150.2C245.04 150.717 244.928 151.181 244.704 151.592C244.485 151.997 244.176 152.341 243.776 152.624C243.381 152.907 242.92 153.12 242.392 153.264C241.864 153.408 241.299 153.48 240.696 153.48C239.821 153.48 239.085 153.352 238.488 153.096C237.891 152.835 237.44 152.496 237.136 152.08C236.832 151.659 236.68 151.211 236.68 150.736Z" fill="#FEFEFE"/>
<path d="M98 147.32C98 146.189 98.12 145.232 98.36 144.448C98.6 143.659 98.9307 143.024 99.352 142.544C99.7733 142.059 100.251 141.707 100.784 141.488C101.323 141.269 101.888 141.16 102.48 141.16C103.115 141.16 103.704 141.269 104.248 141.488C104.792 141.707 105.267 142.059 105.672 142.544C106.077 143.024 106.392 143.659 106.616 144.448C106.845 145.232 106.96 146.189 106.96 147.32C106.96 148.451 106.832 149.411 106.576 150.2C106.32 150.984 105.976 151.619 105.544 152.104C105.117 152.584 104.637 152.933 104.104 153.152C103.576 153.371 103.035 153.48 102.48 153.48C101.888 153.48 101.323 153.371 100.784 153.152C100.251 152.933 99.7733 152.584 99.352 152.104C98.9307 151.619 98.6 150.984 98.36 150.2C98.12 149.411 98 148.451 98 147.32ZM100.56 147.32C100.56 148.557 100.637 149.536 100.792 150.256C100.952 150.971 101.173 151.48 101.456 151.784C101.744 152.088 102.085 152.24 102.48 152.24C102.917 152.24 103.277 152.088 103.56 151.784C103.843 151.48 104.053 150.971 104.192 150.256C104.331 149.536 104.4 148.557 104.4 147.32C104.4 146.083 104.331 145.107 104.192 144.392C104.053 143.672 103.843 143.16 103.56 142.856C103.277 142.552 102.917 142.4 102.48 142.4C102.085 142.4 101.744 142.552 101.456 142.856C101.173 143.16 100.952 143.672 100.792 144.392C100.637 145.107 100.56 146.083 100.56 147.32Z" fill="#FEFEFE"/>
<path d="M95.002 149.976C95.0127 150.819 94.9033 151.499 94.674 152.016C94.4447 152.528 94.1167 152.901 93.69 153.136C93.2633 153.365 92.7567 153.48 92.17 153.48C91.722 153.48 91.314 153.432 90.946 153.336C90.5833 153.24 90.2447 153.128 89.93 153C89.6207 152.872 89.322 152.76 89.034 152.664C88.7513 152.568 88.4633 152.52 88.17 152.52C87.9353 152.52 87.746 152.571 87.602 152.672C87.458 152.768 87.3433 152.899 87.258 153.064C87.2153 153.155 87.178 153.221 87.146 153.264C87.114 153.301 87.026 153.32 86.882 153.32H86.122C85.9993 153.32 85.922 153.301 85.89 153.264C85.8633 153.227 85.85 153.149 85.85 153.032C85.8713 151.917 86.1647 150.904 86.73 149.992C87.2953 149.075 88.13 148.229 89.234 147.456C89.5327 147.248 89.8473 147.029 90.178 146.8C90.514 146.571 90.8287 146.32 91.122 146.048C91.4153 145.776 91.6553 145.475 91.842 145.144C92.0287 144.813 92.122 144.445 92.122 144.04C92.122 143.405 91.954 142.939 91.618 142.64C91.2873 142.341 90.7353 142.192 89.962 142.192C89.578 142.192 89.2287 142.243 88.914 142.344C88.6047 142.445 88.3567 142.571 88.17 142.72C87.9887 142.864 87.898 143 87.898 143.128C87.898 143.208 87.9487 143.28 88.05 143.344C88.1513 143.403 88.2687 143.472 88.402 143.552C88.5407 143.632 88.6607 143.747 88.762 143.896C88.8687 144.04 88.922 144.245 88.922 144.512C88.922 144.928 88.7807 145.248 88.498 145.472C88.2153 145.691 87.906 145.8 87.57 145.8C87.3353 145.8 87.1033 145.749 86.874 145.648C86.65 145.547 86.4633 145.389 86.314 145.176C86.17 144.957 86.098 144.68 86.098 144.344C86.098 143.736 86.2793 143.192 86.642 142.712C87.01 142.232 87.5193 141.853 88.17 141.576C88.8207 141.299 89.578 141.16 90.442 141.16C91.7327 141.16 92.7647 141.408 93.538 141.904C94.3113 142.395 94.698 143.16 94.698 144.2C94.698 144.723 94.5833 145.181 94.354 145.576C94.13 145.965 93.8207 146.315 93.426 146.624C93.0313 146.933 92.5727 147.227 92.05 147.504C91.5327 147.781 90.9833 148.067 90.402 148.36C89.682 148.723 89.1007 149.107 88.658 149.512C88.2207 149.912 87.8873 150.32 87.658 150.736C87.578 150.859 87.5007 150.987 87.426 151.12C87.3513 151.248 87.298 151.357 87.266 151.448C87.2393 151.533 87.25 151.576 87.298 151.576C87.3833 151.576 87.4447 151.507 87.482 151.368C87.5247 151.224 87.634 151.067 87.81 150.896C87.9967 150.715 88.2233 150.581 88.49 150.496C88.7567 150.411 89.0367 150.368 89.33 150.368C89.7567 150.368 90.1273 150.427 90.442 150.544C90.762 150.661 91.0767 150.779 91.386 150.896C91.7007 151.013 92.0607 151.072 92.466 151.072C92.914 151.072 93.2447 150.973 93.458 150.776C93.6713 150.579 93.7993 150.309 93.842 149.968C93.858 149.84 93.8767 149.763 93.898 149.736C93.9193 149.704 94.002 149.688 94.146 149.688H94.738C94.8713 149.688 94.9487 149.704 94.97 149.736C94.9913 149.763 95.002 149.843 95.002 149.976Z" fill="#FEFEFE"/>
<path d="M278.04 147.32C278.04 146.189 278.16 145.232 278.4 144.448C278.64 143.659 278.971 143.024 279.392 142.544C279.813 142.059 280.291 141.707 280.824 141.488C281.363 141.269 281.928 141.16 282.52 141.16C283.155 141.16 283.744 141.269 284.288 141.488C284.832 141.707 285.307 142.059 285.712 142.544C286.117 143.024 286.432 143.659 286.656 144.448C286.885 145.232 287 146.189 287 147.32C287 148.451 286.872 149.411 286.616 150.2C286.36 150.984 286.016 151.619 285.584 152.104C285.157 152.584 284.677 152.933 284.144 153.152C283.616 153.371 283.075 153.48 282.52 153.48C281.928 153.48 281.363 153.371 280.824 153.152C280.291 152.933 279.813 152.584 279.392 152.104C278.971 151.619 278.64 150.984 278.4 150.2C278.16 149.411 278.04 148.451 278.04 147.32ZM280.6 147.32C280.6 148.557 280.677 149.536 280.832 150.256C280.992 150.971 281.213 151.48 281.496 151.784C281.784 152.088 282.125 152.24 282.52 152.24C282.957 152.24 283.317 152.088 283.6 151.784C283.883 151.48 284.093 150.971 284.232 150.256C284.371 149.536 284.44 148.557 284.44 147.32C284.44 146.083 284.371 145.107 284.232 144.392C284.093 143.672 283.883 143.16 283.6 142.856C283.317 142.552 282.957 142.4 282.52 142.4C282.125 142.4 281.784 142.552 281.496 142.856C281.213 143.16 280.992 143.672 280.832 144.392C280.677 145.107 280.6 146.083 280.6 147.32Z" fill="#FEFEFE"/>
<path d="M275.042 149.976C275.053 150.819 274.943 151.499 274.714 152.016C274.485 152.528 274.157 152.901 273.73 153.136C273.303 153.365 272.797 153.48 272.21 153.48C271.762 153.48 271.354 153.432 270.986 153.336C270.623 153.24 270.285 153.128 269.97 153C269.661 152.872 269.362 152.76 269.074 152.664C268.791 152.568 268.503 152.52 268.21 152.52C267.975 152.52 267.786 152.571 267.642 152.672C267.498 152.768 267.383 152.899 267.298 153.064C267.255 153.155 267.218 153.221 267.186 153.264C267.154 153.301 267.066 153.32 266.922 153.32H266.162C266.039 153.32 265.962 153.301 265.93 153.264C265.903 153.227 265.89 153.149 265.89 153.032C265.911 151.917 266.205 150.904 266.77 149.992C267.335 149.075 268.17 148.229 269.274 147.456C269.573 147.248 269.887 147.029 270.218 146.8C270.554 146.571 270.869 146.32 271.162 146.048C271.455 145.776 271.695 145.475 271.882 145.144C272.069 144.813 272.162 144.445 272.162 144.04C272.162 143.405 271.994 142.939 271.658 142.64C271.327 142.341 270.775 142.192 270.002 142.192C269.618 142.192 269.269 142.243 268.954 142.344C268.645 142.445 268.397 142.571 268.21 142.72C268.029 142.864 267.938 143 267.938 143.128C267.938 143.208 267.989 143.28 268.09 143.344C268.191 143.403 268.309 143.472 268.442 143.552C268.581 143.632 268.701 143.747 268.802 143.896C268.909 144.04 268.962 144.245 268.962 144.512C268.962 144.928 268.821 145.248 268.538 145.472C268.255 145.691 267.946 145.8 267.61 145.8C267.375 145.8 267.143 145.749 266.914 145.648C266.69 145.547 266.503 145.389 266.354 145.176C266.21 144.957 266.138 144.68 266.138 144.344C266.138 143.736 266.319 143.192 266.682 142.712C267.05 142.232 267.559 141.853 268.21 141.576C268.861 141.299 269.618 141.16 270.482 141.16C271.773 141.16 272.805 141.408 273.578 141.904C274.351 142.395 274.738 143.16 274.738 144.2C274.738 144.723 274.623 145.181 274.394 145.576C274.17 145.965 273.861 146.315 273.466 146.624C273.071 146.933 272.613 147.227 272.09 147.504C271.573 147.781 271.023 148.067 270.442 148.36C269.722 148.723 269.141 149.107 268.698 149.512C268.261 149.912 267.927 150.32 267.698 150.736C267.618 150.859 267.541 150.987 267.466 151.12C267.391 151.248 267.338 151.357 267.306 151.448C267.279 151.533 267.29 151.576 267.338 151.576C267.423 151.576 267.485 151.507 267.522 151.368C267.565 151.224 267.674 151.067 267.85 150.896C268.037 150.715 268.263 150.581 268.53 150.496C268.797 150.411 269.077 150.368 269.37 150.368C269.797 150.368 270.167 150.427 270.482 150.544C270.802 150.661 271.117 150.779 271.426 150.896C271.741 151.013 272.101 151.072 272.506 151.072C272.954 151.072 273.285 150.973 273.498 150.776C273.711 150.579 273.839 150.309 273.882 149.968C273.898 149.84 273.917 149.763 273.938 149.736C273.959 149.704 274.042 149.688 274.186 149.688H274.778C274.911 149.688 274.989 149.704 275.01 149.736C275.031 149.763 275.042 149.843 275.042 149.976Z" fill="#FEFEFE"/>
<path d="M68 147.32C68 146.189 68.12 145.232 68.36 144.448C68.6 143.659 68.9307 143.024 69.352 142.544C69.7733 142.059 70.2507 141.707 70.784 141.488C71.3227 141.269 71.888 141.16 72.48 141.16C73.1147 141.16 73.704 141.269 74.248 141.488C74.792 141.707 75.2667 142.059 75.672 142.544C76.0773 143.024 76.392 143.659 76.616 144.448C76.8453 145.232 76.96 146.189 76.96 147.32C76.96 148.451 76.832 149.411 76.576 150.2C76.32 150.984 75.976 151.619 75.544 152.104C75.1173 152.584 74.6373 152.933 74.104 153.152C73.576 153.371 73.0347 153.48 72.48 153.48C71.888 153.48 71.3227 153.371 70.784 153.152C70.2507 152.933 69.7733 152.584 69.352 152.104C68.9307 151.619 68.6 150.984 68.36 150.2C68.12 149.411 68 148.451 68 147.32ZM70.56 147.32C70.56 148.557 70.6373 149.536 70.792 150.256C70.952 150.971 71.1733 151.48 71.456 151.784C71.744 152.088 72.0853 152.24 72.48 152.24C72.9173 152.24 73.2773 152.088 73.56 151.784C73.8427 151.48 74.0533 150.971 74.192 150.256C74.3307 149.536 74.4 148.557 74.4 147.32C74.4 146.083 74.3307 145.107 74.192 144.392C74.0533 143.672 73.8427 143.16 73.56 142.856C73.2773 142.552 72.9173 142.4 72.48 142.4C72.0853 142.4 71.744 142.552 71.456 142.856C71.1733 143.16 70.952 143.672 70.792 144.392C70.6373 145.107 70.56 146.083 70.56 147.32Z" fill="#FEFEFE"/>
<path d="M57.4 153.075V152.521C57.4 152.381 57.4234 152.297 57.4702 152.271C57.5222 152.245 57.6183 152.232 57.7587 152.232H59.786C59.9524 152.232 60.0563 152.209 60.0979 152.162C60.1447 152.115 60.1681 152.014 60.1681 151.858V144.723C60.1681 144.578 60.1473 144.482 60.1057 144.435C60.0693 144.383 59.9784 144.357 59.8328 144.357H58.0082C57.8886 144.357 57.8003 144.344 57.7431 144.318C57.6911 144.287 57.6651 144.206 57.6651 144.076V143.491C57.6651 143.31 57.7015 143.2 57.7743 143.164C57.8523 143.128 57.9744 143.107 58.1408 143.102C58.6294 143.096 59.0583 143.06 59.4273 142.992C59.8016 142.925 60.1291 142.779 60.4098 142.556C60.6957 142.327 60.9556 141.976 61.1896 141.503C61.2416 141.394 61.2883 141.311 61.3299 141.254C61.3715 141.191 61.4755 141.16 61.6418 141.16H62.0863C62.2162 141.16 62.3046 141.176 62.3514 141.207C62.4034 141.233 62.4294 141.311 62.4294 141.441V151.811C62.4294 152.004 62.4554 152.123 62.5073 152.17C62.5645 152.212 62.6945 152.232 62.8972 152.232H64.6283C64.7426 152.232 64.8336 152.245 64.9012 152.271C64.9687 152.297 65.0025 152.375 65.0025 152.505V153.09C65.0025 153.251 64.9869 153.358 64.9557 153.41C64.9246 153.457 64.831 153.48 64.675 153.48H57.7899C57.6183 153.48 57.5092 153.457 57.4624 153.41C57.4208 153.363 57.4 153.251 57.4 153.075Z" fill="#FEFEFE"/>
<path d="M308.04 147.32C308.04 146.189 308.16 145.232 308.4 144.448C308.64 143.659 308.971 143.024 309.392 142.544C309.813 142.059 310.291 141.707 310.824 141.488C311.363 141.269 311.928 141.16 312.52 141.16C313.155 141.16 313.744 141.269 314.288 141.488C314.832 141.707 315.307 142.059 315.712 142.544C316.117 143.024 316.432 143.659 316.656 144.448C316.885 145.232 317 146.189 317 147.32C317 148.451 316.872 149.411 316.616 150.2C316.36 150.984 316.016 151.619 315.584 152.104C315.157 152.584 314.677 152.933 314.144 153.152C313.616 153.371 313.075 153.48 312.52 153.48C311.928 153.48 311.363 153.371 310.824 153.152C310.291 152.933 309.813 152.584 309.392 152.104C308.971 151.619 308.64 150.984 308.4 150.2C308.16 149.411 308.04 148.451 308.04 147.32ZM310.6 147.32C310.6 148.557 310.677 149.536 310.832 150.256C310.992 150.971 311.213 151.48 311.496 151.784C311.784 152.088 312.125 152.24 312.52 152.24C312.957 152.24 313.317 152.088 313.6 151.784C313.883 151.48 314.093 150.971 314.232 150.256C314.371 149.536 314.44 148.557 314.44 147.32C314.44 146.083 314.371 145.107 314.232 144.392C314.093 143.672 313.883 143.16 313.6 142.856C313.317 142.552 312.957 142.4 312.52 142.4C312.125 142.4 311.784 142.552 311.496 142.856C311.213 143.16 310.992 143.672 310.832 144.392C310.677 145.107 310.6 146.083 310.6 147.32Z" fill="#FEFEFE"/>
<path d="M297.44 153.075V152.521C297.44 152.381 297.463 152.297 297.51 152.271C297.562 152.245 297.658 152.232 297.799 152.232H299.826C299.992 152.232 300.096 152.209 300.138 152.162C300.185 152.115 300.208 152.014 300.208 151.858V144.723C300.208 144.578 300.187 144.482 300.146 144.435C300.109 144.383 300.018 144.357 299.873 144.357H298.048C297.929 144.357 297.84 144.344 297.783 144.318C297.731 144.287 297.705 144.206 297.705 144.076V143.491C297.705 143.31 297.742 143.2 297.814 143.164C297.892 143.128 298.014 143.107 298.181 143.102C298.669 143.096 299.098 143.06 299.467 142.992C299.842 142.925 300.169 142.779 300.45 142.556C300.736 142.327 300.996 141.976 301.23 141.503C301.282 141.394 301.328 141.311 301.37 141.254C301.412 141.191 301.515 141.16 301.682 141.16H302.126C302.256 141.16 302.345 141.176 302.391 141.207C302.443 141.233 302.469 141.311 302.469 141.441V151.811C302.469 152.004 302.495 152.123 302.547 152.17C302.605 152.212 302.734 152.232 302.937 152.232H304.668C304.783 152.232 304.874 152.245 304.941 152.271C305.009 152.297 305.043 152.375 305.043 152.505V153.09C305.043 153.251 305.027 153.358 304.996 153.41C304.965 153.457 304.871 153.48 304.715 153.48H297.83C297.658 153.48 297.549 153.457 297.502 153.41C297.461 153.363 297.44 153.251 297.44 153.075Z" fill="#FEFEFE"/>
<path d="M53 147.66L55.25 146.361V148.959L53 147.66Z" fill="#FEFEFE"/>
<path d="M83 147.66L85.25 146.361V148.959L83 147.66Z" fill="#FEFEFE"/>
<path d="M113 147.66L115.25 146.361V148.959L113 147.66Z" fill="#FEFEFE"/>
<path d="M143 147.66L145.25 146.361V148.959L143 147.66Z" fill="#FEFEFE"/>
<path d="M230 147.66L227.75 146.361V148.959L230 147.66Z" fill="#FEFEFE"/>
<path d="M260 147.66L257.75 146.361V148.959L260 147.66Z" fill="#FEFEFE"/>
<path d="M290 147.66L287.75 146.361V148.959L290 147.66Z" fill="#FEFEFE"/>
<path d="M320 147.66L317.75 146.361V148.959L320 147.66Z" fill="#FEFEFE"/>
<path d="M214.81 152.328V153.072C214.81 153.184 214.792 153.253 214.754 153.28C214.717 153.307 214.64 153.32 214.522 153.32H209.722C209.578 153.32 209.482 153.304 209.434 153.272C209.392 153.235 209.37 153.144 209.37 153V152.352C209.37 152.224 209.386 152.141 209.418 152.104C209.456 152.061 209.538 152.04 209.666 152.04H210.786C210.92 152.04 211.002 152.021 211.034 151.984C211.072 151.947 211.09 151.861 211.09 151.728V150.208C211.09 150.037 211.074 149.933 211.042 149.896C211.01 149.859 210.909 149.84 210.738 149.84H206.738C206.594 149.84 206.501 149.827 206.458 149.8C206.416 149.768 206.365 149.715 206.306 149.64L206.074 149.304C206.016 149.219 205.992 149.152 206.002 149.104C206.018 149.051 206.048 148.979 206.09 148.888C206.325 148.371 206.632 147.893 207.01 147.456C207.389 147.019 207.794 146.592 208.226 146.176C208.664 145.76 209.093 145.333 209.514 144.896C209.936 144.459 210.312 143.987 210.642 143.48C210.978 142.968 211.229 142.395 211.394 141.76C211.432 141.611 211.464 141.501 211.49 141.432C211.522 141.357 211.637 141.32 211.834 141.32H213.346C213.538 141.32 213.658 141.341 213.706 141.384C213.754 141.421 213.765 141.525 213.738 141.696C213.648 142.336 213.437 142.907 213.106 143.408C212.781 143.909 212.389 144.365 211.93 144.776C211.477 145.181 211.002 145.565 210.506 145.928C210.016 146.285 209.552 146.637 209.114 146.984C208.677 147.331 208.317 147.696 208.034 148.08C207.976 148.16 207.933 148.237 207.906 148.312C207.885 148.381 207.904 148.44 207.962 148.488C208.021 148.536 208.141 148.56 208.322 148.56H210.866C210.978 148.56 211.042 148.541 211.058 148.504C211.08 148.467 211.09 148.392 211.09 148.28V147.6C211.09 147.44 211.109 147.344 211.146 147.312C211.189 147.28 211.258 147.235 211.354 147.176C211.584 147.032 211.808 146.856 212.026 146.648C212.245 146.435 212.424 146.155 212.562 145.808C212.594 145.733 212.624 145.675 212.65 145.632C212.677 145.584 212.746 145.56 212.858 145.56H213.146C213.264 145.56 213.336 145.576 213.362 145.608C213.394 145.635 213.41 145.704 213.41 145.816V148.152C213.41 148.291 213.432 148.395 213.474 148.464C213.517 148.528 213.613 148.56 213.762 148.56H214.786C214.904 148.56 214.976 148.579 215.002 148.616C215.034 148.653 215.05 148.731 215.05 148.848V149.496C215.05 149.64 215.032 149.733 214.994 149.776C214.962 149.819 214.872 149.84 214.722 149.84H213.77C213.626 149.84 213.53 149.861 213.482 149.904C213.434 149.947 213.41 150.043 213.41 150.192V151.688C213.41 151.837 213.432 151.933 213.474 151.976C213.517 152.019 213.616 152.04 213.77 152.04H214.498C214.626 152.04 214.709 152.056 214.746 152.088C214.789 152.115 214.81 152.195 214.81 152.328Z" fill="#FEFEFE"/>
<path d="M218.05 147.32C218.05 146.189 218.17 145.232 218.41 144.448C218.65 143.659 218.981 143.024 219.402 142.544C219.824 142.059 220.301 141.707 220.834 141.488C221.373 141.269 221.938 141.16 222.53 141.16C223.165 141.16 223.754 141.269 224.298 141.488C224.842 141.707 225.317 142.059 225.722 142.544C226.128 143.024 226.442 143.659 226.666 144.448C226.896 145.232 227.01 146.189 227.01 147.32C227.01 148.451 226.882 149.411 226.626 150.2C226.37 150.984 226.026 151.619 225.594 152.104C225.168 152.584 224.688 152.933 224.154 153.152C223.626 153.371 223.085 153.48 222.53 153.48C221.938 153.48 221.373 153.371 220.834 153.152C220.301 152.933 219.824 152.584 219.402 152.104C218.981 151.619 218.65 150.984 218.41 150.2C218.17 149.411 218.05 148.451 218.05 147.32ZM220.61 147.32C220.61 148.557 220.688 149.536 220.842 150.256C221.002 150.971 221.224 151.48 221.506 151.784C221.794 152.088 222.136 152.24 222.53 152.24C222.968 152.24 223.328 152.088 223.61 151.784C223.893 151.48 224.104 150.971 224.242 150.256C224.381 149.536 224.45 148.557 224.45 147.32C224.45 146.083 224.381 145.107 224.242 144.392C224.104 143.672 223.893 143.16 223.61 142.856C223.328 142.552 222.968 142.4 222.53 142.4C222.136 142.4 221.794 142.552 221.506 142.856C221.224 143.16 221.002 143.672 220.842 144.392C220.688 145.107 220.61 146.083 220.61 147.32Z" fill="#FEFEFE"/>
<path d="M154.753 152.168V152.912C154.753 153.024 154.734 153.093 154.697 153.12C154.659 153.147 154.582 153.16 154.465 153.16H149.665C149.521 153.16 149.425 153.144 149.377 153.112C149.334 153.075 149.313 152.984 149.313 152.84V152.192C149.313 152.064 149.329 151.981 149.361 151.944C149.398 151.901 149.481 151.88 149.609 151.88H150.729C150.862 151.88 150.945 151.861 150.977 151.824C151.014 151.787 151.033 151.701 151.033 151.568V150.048C151.033 149.877 151.017 149.773 150.985 149.736C150.953 149.699 150.851 149.68 150.681 149.68H146.681C146.537 149.68 146.443 149.667 146.401 149.64C146.358 149.608 146.307 149.555 146.249 149.48L146.017 149.144C145.958 149.059 145.934 148.992 145.945 148.944C145.961 148.891 145.99 148.819 146.033 148.728C146.267 148.211 146.574 147.733 146.953 147.296C147.331 146.859 147.737 146.432 148.169 146.016C148.606 145.6 149.035 145.173 149.457 144.736C149.878 144.299 150.254 143.827 150.585 143.32C150.921 142.808 151.171 142.235 151.337 141.6C151.374 141.451 151.406 141.341 151.433 141.272C151.465 141.197 151.579 141.16 151.777 141.16H153.289C153.481 141.16 153.601 141.181 153.649 141.224C153.697 141.261 153.707 141.365 153.681 141.536C153.59 142.176 153.379 142.747 153.049 143.248C152.723 143.749 152.331 144.205 151.873 144.616C151.419 145.021 150.945 145.405 150.449 145.768C149.958 146.125 149.494 146.477 149.057 146.824C148.619 147.171 148.259 147.536 147.977 147.92C147.918 148 147.875 148.077 147.849 148.152C147.827 148.221 147.846 148.28 147.905 148.328C147.963 148.376 148.083 148.4 148.265 148.4H150.809C150.921 148.4 150.985 148.381 151.001 148.344C151.022 148.307 151.033 148.232 151.033 148.12V147.44C151.033 147.28 151.051 147.184 151.089 147.152C151.131 147.12 151.201 147.075 151.297 147.016C151.526 146.872 151.75 146.696 151.969 146.488C152.187 146.275 152.366 145.995 152.505 145.648C152.537 145.573 152.566 145.515 152.593 145.472C152.619 145.424 152.689 145.4 152.801 145.4H153.089C153.206 145.4 153.278 145.416 153.305 145.448C153.337 145.475 153.353 145.544 153.353 145.656V147.992C153.353 148.131 153.374 148.235 153.417 148.304C153.459 148.368 153.555 148.4 153.705 148.4H154.729C154.846 148.4 154.918 148.419 154.945 148.456C154.977 148.493 154.993 148.571 154.993 148.688V149.336C154.993 149.48 154.974 149.573 154.937 149.616C154.905 149.659 154.814 149.68 154.665 149.68H153.713C153.569 149.68 153.473 149.701 153.425 149.744C153.377 149.787 153.353 149.883 153.353 150.032V151.528C153.353 151.677 153.374 151.773 153.417 151.816C153.459 151.859 153.558 151.88 153.713 151.88H154.441C154.569 151.88 154.651 151.896 154.689 151.928C154.731 151.955 154.753 152.035 154.753 152.168Z" fill="#FEFEFE"/>
<path d="M157.993 147.16C157.993 146.029 158.113 145.072 158.353 144.288C158.593 143.499 158.923 142.864 159.345 142.384C159.766 141.899 160.243 141.547 160.777 141.328C161.315 141.109 161.881 141 162.473 141C163.107 141 163.697 141.109 164.241 141.328C164.785 141.547 165.259 141.899 165.665 142.384C166.07 142.864 166.385 143.499 166.609 144.288C166.838 145.072 166.953 146.029 166.953 147.16C166.953 148.291 166.825 149.251 166.569 150.04C166.313 150.824 165.969 151.459 165.537 151.944C165.11 152.424 164.63 152.773 164.097 152.992C163.569 153.211 163.027 153.32 162.473 153.32C161.881 153.32 161.315 153.211 160.777 152.992C160.243 152.773 159.766 152.424 159.345 151.944C158.923 151.459 158.593 150.824 158.353 150.04C158.113 149.251 157.993 148.291 157.993 147.16ZM160.553 147.16C160.553 148.397 160.63 149.376 160.785 150.096C160.945 150.811 161.166 151.32 161.449 151.624C161.737 151.928 162.078 152.08 162.473 152.08C162.91 152.08 163.27 151.928 163.553 151.624C163.835 151.32 164.046 150.811 164.185 150.096C164.323 149.376 164.393 148.397 164.393 147.16C164.393 145.923 164.323 144.947 164.185 144.232C164.046 143.512 163.835 143 163.553 142.696C163.27 142.392 162.91 142.24 162.473 142.24C162.078 142.24 161.737 142.392 161.449 142.696C161.166 143 160.945 143.512 160.785 144.232C160.63 144.947 160.553 145.923 160.553 147.16Z" fill="#FEFEFE"/>
<path d="M176.64 151.288C176.64 150.803 176.784 150.44 177.072 150.2C177.36 149.955 177.691 149.832 178.064 149.832C178.421 149.832 178.723 149.941 178.968 150.16C179.213 150.373 179.336 150.64 179.336 150.96C179.336 151.179 179.288 151.355 179.192 151.488C179.101 151.621 179.011 151.741 178.92 151.848C178.829 151.949 178.784 152.061 178.784 152.184C178.784 152.376 178.909 152.533 179.16 152.656C179.411 152.779 179.723 152.84 180.096 152.84C180.571 152.84 180.995 152.701 181.368 152.424C181.747 152.147 182.043 151.779 182.256 151.32C182.475 150.856 182.584 150.347 182.584 149.792C182.584 149.141 182.488 148.597 182.296 148.16C182.104 147.717 181.848 147.384 181.528 147.16C181.208 146.931 180.851 146.816 180.456 146.816C180.072 146.816 179.712 146.896 179.376 147.056C179.045 147.211 178.731 147.472 178.432 147.84C178.368 147.92 178.307 147.981 178.248 148.024C178.189 148.061 178.083 148.08 177.928 148.08H177.504C177.323 148.08 177.221 148.048 177.2 147.984C177.184 147.915 177.184 147.805 177.2 147.656L177.904 141.984C177.92 141.845 177.952 141.76 178 141.728C178.053 141.691 178.155 141.672 178.304 141.672H180.752C181.317 141.672 181.757 141.685 182.072 141.712C182.392 141.739 182.645 141.733 182.832 141.696C183.019 141.653 183.195 141.539 183.36 141.352C183.408 141.304 183.453 141.261 183.496 141.224C183.544 141.181 183.624 141.16 183.736 141.16H184.384C184.533 141.16 184.595 141.219 184.568 141.336L184.488 141.672C184.419 141.997 184.325 142.299 184.208 142.576C184.096 142.848 183.899 143.085 183.616 143.288C183.339 143.485 182.923 143.64 182.368 143.752C181.819 143.859 181.069 143.912 180.12 143.912H179.04C178.907 143.912 178.816 143.931 178.768 143.968C178.725 144.005 178.693 144.085 178.672 144.208L178.424 146.088C178.403 146.259 178.373 146.405 178.336 146.528C178.304 146.645 178.304 146.712 178.336 146.728C178.395 146.76 178.448 146.733 178.496 146.648C178.549 146.557 178.643 146.459 178.776 146.352C179.032 146.16 179.341 146 179.704 145.872C180.072 145.739 180.507 145.672 181.008 145.672C181.893 145.672 182.632 145.851 183.224 146.208C183.816 146.56 184.259 147.04 184.552 147.648C184.851 148.251 185 148.925 185 149.672C185 150.525 184.795 151.264 184.384 151.888C183.979 152.512 183.424 152.992 182.72 153.328C182.016 153.664 181.221 153.832 180.336 153.832C179.605 153.832 178.96 153.723 178.4 153.504C177.845 153.28 177.413 152.979 177.104 152.6C176.795 152.216 176.64 151.779 176.64 151.288Z" fill="#FEFEFE"/>
<path d="M188 147.672C188 146.541 188.12 145.584 188.36 144.8C188.6 144.011 188.931 143.376 189.352 142.896C189.773 142.411 190.251 142.059 190.784 141.84C191.323 141.621 191.888 141.512 192.48 141.512C193.115 141.512 193.704 141.621 194.248 141.84C194.792 142.059 195.267 142.411 195.672 142.896C196.077 143.376 196.392 144.011 196.616 144.8C196.845 145.584 196.96 146.541 196.96 147.672C196.96 148.803 196.832 149.763 196.576 150.552C196.32 151.336 195.976 151.971 195.544 152.456C195.117 152.936 194.637 153.285 194.104 153.504C193.576 153.723 193.035 153.832 192.48 153.832C191.888 153.832 191.323 153.723 190.784 153.504C190.251 153.285 189.773 152.936 189.352 152.456C188.931 151.971 188.6 151.336 188.36 150.552C188.12 149.763 188 148.803 188 147.672ZM190.56 147.672C190.56 148.909 190.637 149.888 190.792 150.608C190.952 151.323 191.173 151.832 191.456 152.136C191.744 152.44 192.085 152.592 192.48 152.592C192.917 152.592 193.277 152.44 193.56 152.136C193.843 151.832 194.053 151.323 194.192 150.608C194.331 149.888 194.4 148.909 194.4 147.672C194.4 146.435 194.331 145.459 194.192 144.744C194.053 144.024 193.843 143.512 193.56 143.208C193.277 142.904 192.917 142.752 192.48 142.752C192.085 142.752 191.744 142.904 191.456 143.208C191.173 143.512 190.952 144.024 190.792 144.744C190.637 145.459 190.56 146.435 190.56 147.672Z" fill="#FEFEFE"/>
<line x1="39.5" y1="106" x2="39.5" y2="109" stroke="#FEFEFE"/>
<line x1="42.5" y1="106" x2="42.5" y2="109" stroke="#FEFEFE"/>
<line x1="48.5" y1="106" x2="48.5" y2="109" stroke="#FEFEFE"/>
<line x1="45.5" y1="106" x2="45.5" y2="109" stroke="#FEFEFE"/>
<line x1="39.5" y1="63" x2="39.5" y2="66" stroke="#FEFEFE"/>
<line x1="42.5" y1="63" x2="42.5" y2="66" stroke="#FEFEFE"/>
<line x1="48.5" y1="63" x2="48.5" y2="66" stroke="#FEFEFE"/>
<line x1="45.5" y1="63" x2="45.5" y2="66" stroke="#FEFEFE"/>
<line x1="54.5" y1="106" x2="54.5" y2="109" stroke="#FEFEFE"/>
<line x1="57.5" y1="106" x2="57.5" y2="109" stroke="#FEFEFE"/>
<line x1="63.5" y1="106" x2="63.5" y2="109" stroke="#FEFEFE"/>
<line x1="60.5" y1="106" x2="60.5" y2="109" stroke="#FEFEFE"/>
<line x1="54.5" y1="63" x2="54.5" y2="66" stroke="#FEFEFE"/>
<line x1="57.5" y1="63" x2="57.5" y2="66" stroke="#FEFEFE"/>
<line x1="63.5" y1="63" x2="63.5" y2="66" stroke="#FEFEFE"/>
<line x1="60.5" y1="63" x2="60.5" y2="66" stroke="#FEFEFE"/>
<line x1="69.5" y1="106" x2="69.5" y2="109" stroke="#FEFEFE"/>
<line x1="72.5" y1="106" x2="72.5" y2="109" stroke="#FEFEFE"/>
<line x1="78.5" y1="106" x2="78.5" y2="109" stroke="#FEFEFE"/>
<line x1="75.5" y1="106" x2="75.5" y2="109" stroke="#FEFEFE"/>
<line x1="69.5" y1="63" x2="69.5" y2="66" stroke="#FEFEFE"/>
<line x1="72.5" y1="63" x2="72.5" y2="66" stroke="#FEFEFE"/>
<line x1="78.5" y1="63" x2="78.5" y2="66" stroke="#FEFEFE"/>
<line x1="75.5" y1="63" x2="75.5" y2="66" stroke="#FEFEFE"/>
<line x1="84.5" y1="106" x2="84.5" y2="109" stroke="#FEFEFE"/>
<line x1="87.5" y1="106" x2="87.5" y2="109" stroke="#FEFEFE"/>
<line x1="93.5" y1="106" x2="93.5" y2="109" stroke="#FEFEFE"/>
<line x1="90.5" y1="106" x2="90.5" y2="109" stroke="#FEFEFE"/>
<line x1="84.5" y1="63" x2="84.5" y2="66" stroke="#FEFEFE"/>
<line x1="87.5" y1="63" x2="87.5" y2="66" stroke="#FEFEFE"/>
<line x1="93.5" y1="63" x2="93.5" y2="66" stroke="#FEFEFE"/>
<line x1="90.5" y1="63" x2="90.5" y2="66" stroke="#FEFEFE"/>
<line x1="99.5" y1="106" x2="99.5" y2="109" stroke="#FEFEFE"/>
<line x1="102.5" y1="106" x2="102.5" y2="109" stroke="#FEFEFE"/>
<line x1="108.5" y1="106" x2="108.5" y2="109" stroke="#FEFEFE"/>
<line x1="105.5" y1="106" x2="105.5" y2="109" stroke="#FEFEFE"/>
<line x1="99.5" y1="63" x2="99.5" y2="66" stroke="#FEFEFE"/>
<line x1="102.5" y1="63" x2="102.5" y2="66" stroke="#FEFEFE"/>
<line x1="108.5" y1="63" x2="108.5" y2="66" stroke="#FEFEFE"/>
<line x1="105.5" y1="63" x2="105.5" y2="66" stroke="#FEFEFE"/>
<line x1="114.5" y1="106" x2="114.5" y2="109" stroke="#FEFEFE"/>
<line x1="117.5" y1="106" x2="117.5" y2="109" stroke="#FEFEFE"/>
<line x1="123.5" y1="106" x2="123.5" y2="109" stroke="#FEFEFE"/>
<line x1="120.5" y1="106" x2="120.5" y2="109" stroke="#FEFEFE"/>
<line x1="114.5" y1="63" x2="114.5" y2="66" stroke="#FEFEFE"/>
<line x1="117.5" y1="63" x2="117.5" y2="66" stroke="#FEFEFE"/>
<line x1="123.5" y1="63" x2="123.5" y2="66" stroke="#FEFEFE"/>
<line x1="120.5" y1="63" x2="120.5" y2="66" stroke="#FEFEFE"/>
<line x1="129.5" y1="106" x2="129.5" y2="109" stroke="#FEFEFE"/>
<line x1="132.5" y1="106" x2="132.5" y2="109" stroke="#FEFEFE"/>
<line x1="138.5" y1="106" x2="138.5" y2="109" stroke="#FEFEFE"/>
<line x1="135.5" y1="106" x2="135.5" y2="109" stroke="#FEFEFE"/>
<line x1="129.5" y1="63" x2="129.5" y2="66" stroke="#FEFEFE"/>
<line x1="132.5" y1="63" x2="132.5" y2="66" stroke="#FEFEFE"/>
<line x1="138.5" y1="63" x2="138.5" y2="66" stroke="#FEFEFE"/>
<line x1="135.5" y1="63" x2="135.5" y2="66" stroke="#FEFEFE"/>
<line x1="144.5" y1="106" x2="144.5" y2="109" stroke="#FEFEFE"/>
<line x1="147.5" y1="106" x2="147.5" y2="109" stroke="#FEFEFE"/>
<line x1="153.5" y1="106" x2="153.5" y2="109" stroke="#FEFEFE"/>
<line x1="150.5" y1="106" x2="150.5" y2="109" stroke="#FEFEFE"/>
<line x1="144.5" y1="63" x2="144.5" y2="66" stroke="#FEFEFE"/>
<line x1="147.5" y1="63" x2="147.5" y2="66" stroke="#FEFEFE"/>
<line x1="153.5" y1="63" x2="153.5" y2="66" stroke="#FEFEFE"/>
<line x1="150.5" y1="63" x2="150.5" y2="66" stroke="#FEFEFE"/>
<line x1="159.5" y1="106" x2="159.5" y2="109" stroke="#FEFEFE"/>
<line x1="162.5" y1="106" x2="162.5" y2="109" stroke="#FEFEFE"/>
<line x1="168.5" y1="106" x2="168.5" y2="109" stroke="#FEFEFE"/>
<line x1="165.5" y1="106" x2="165.5" y2="109" stroke="#FEFEFE"/>
<line x1="159.5" y1="63" x2="159.5" y2="66" stroke="#FEFEFE"/>
<line x1="162.5" y1="63" x2="162.5" y2="66" stroke="#FEFEFE"/>
<line x1="168.5" y1="63" x2="168.5" y2="66" stroke="#FEFEFE"/>
<line x1="165.5" y1="63" x2="165.5" y2="66" stroke="#FEFEFE"/>
<line x1="174.5" y1="106" x2="174.5" y2="109" stroke="#FEFEFE"/>
<line x1="177.5" y1="106" x2="177.5" y2="109" stroke="#FEFEFE"/>
<line x1="183.5" y1="106" x2="183.5" y2="109" stroke="#FEFEFE"/>
<line x1="180.5" y1="106" x2="180.5" y2="109" stroke="#FEFEFE"/>
<line x1="174.5" y1="63" x2="174.5" y2="66" stroke="#FEFEFE"/>
<line x1="177.5" y1="63" x2="177.5" y2="66" stroke="#FEFEFE"/>
<line x1="183.5" y1="63" x2="183.5" y2="66" stroke="#FEFEFE"/>
<line x1="180.5" y1="63" x2="180.5" y2="66" stroke="#FEFEFE"/>
<line x1="189.5" y1="106" x2="189.5" y2="109" stroke="#FEFEFE"/>
<line x1="192.5" y1="106" x2="192.5" y2="109" stroke="#FEFEFE"/>
<line x1="198.5" y1="106" x2="198.5" y2="109" stroke="#FEFEFE"/>
<line x1="195.5" y1="106" x2="195.5" y2="109" stroke="#FEFEFE"/>
<line x1="189.5" y1="63" x2="189.5" y2="66" stroke="#FEFEFE"/>
<line x1="192.5" y1="63" x2="192.5" y2="66" stroke="#FEFEFE"/>
<line x1="198.5" y1="63" x2="198.5" y2="66" stroke="#FEFEFE"/>
<line x1="195.5" y1="63" x2="195.5" y2="66" stroke="#FEFEFE"/>
<line x1="204.5" y1="106" x2="204.5" y2="109" stroke="#FEFEFE"/>
<line x1="207.5" y1="106" x2="207.5" y2="109" stroke="#FEFEFE"/>
<line x1="213.5" y1="106" x2="213.5" y2="109" stroke="#FEFEFE"/>
<line x1="210.5" y1="106" x2="210.5" y2="109" stroke="#FEFEFE"/>
<line x1="204.5" y1="63" x2="204.5" y2="66" stroke="#FEFEFE"/>
<line x1="207.5" y1="63" x2="207.5" y2="66" stroke="#FEFEFE"/>
<line x1="213.5" y1="63" x2="213.5" y2="66" stroke="#FEFEFE"/>
<line x1="210.5" y1="63" x2="210.5" y2="66" stroke="#FEFEFE"/>
<line x1="219.5" y1="106" x2="219.5" y2="109" stroke="#FEFEFE"/>
<line x1="222.5" y1="106" x2="222.5" y2="109" stroke="#FEFEFE"/>
<line x1="228.5" y1="106" x2="228.5" y2="109" stroke="#FEFEFE"/>
<line x1="225.5" y1="106" x2="225.5" y2="109" stroke="#FEFEFE"/>
<line x1="219.5" y1="63" x2="219.5" y2="66" stroke="#FEFEFE"/>
<line x1="222.5" y1="63" x2="222.5" y2="66" stroke="#FEFEFE"/>
<line x1="228.5" y1="63" x2="228.5" y2="66" stroke="#FEFEFE"/>
<line x1="225.5" y1="63" x2="225.5" y2="66" stroke="#FEFEFE"/>
<line x1="234.5" y1="106" x2="234.5" y2="109" stroke="#FEFEFE"/>
<line x1="237.5" y1="106" x2="237.5" y2="109" stroke="#FEFEFE"/>
<line x1="243.5" y1="106" x2="243.5" y2="109" stroke="#FEFEFE"/>
<line x1="240.5" y1="106" x2="240.5" y2="109" stroke="#FEFEFE"/>
<line x1="234.5" y1="63" x2="234.5" y2="66" stroke="#FEFEFE"/>
<line x1="237.5" y1="63" x2="237.5" y2="66" stroke="#FEFEFE"/>
<line x1="243.5" y1="63" x2="243.5" y2="66" stroke="#FEFEFE"/>
<line x1="240.5" y1="63" x2="240.5" y2="66" stroke="#FEFEFE"/>
<line x1="249.5" y1="106" x2="249.5" y2="109" stroke="#FEFEFE"/>
<line x1="252.5" y1="106" x2="252.5" y2="109" stroke="#FEFEFE"/>
<line x1="258.5" y1="106" x2="258.5" y2="109" stroke="#FEFEFE"/>
<line x1="255.5" y1="106" x2="255.5" y2="109" stroke="#FEFEFE"/>
<line x1="249.5" y1="63" x2="249.5" y2="66" stroke="#FEFEFE"/>
<line x1="252.5" y1="63" x2="252.5" y2="66" stroke="#FEFEFE"/>
<line x1="258.5" y1="63" x2="258.5" y2="66" stroke="#FEFEFE"/>
<line x1="255.5" y1="63" x2="255.5" y2="66" stroke="#FEFEFE"/>
<line x1="264.5" y1="106" x2="264.5" y2="109" stroke="#FEFEFE"/>
<line x1="267.5" y1="106" x2="267.5" y2="109" stroke="#FEFEFE"/>
<line x1="273.5" y1="106" x2="273.5" y2="109" stroke="#FEFEFE"/>
<line x1="270.5" y1="106" x2="270.5" y2="109" stroke="#FEFEFE"/>
<line x1="264.5" y1="63" x2="264.5" y2="66" stroke="#FEFEFE"/>
<line x1="267.5" y1="63" x2="267.5" y2="66" stroke="#FEFEFE"/>
<line x1="273.5" y1="63" x2="273.5" y2="66" stroke="#FEFEFE"/>
<line x1="270.5" y1="63" x2="270.5" y2="66" stroke="#FEFEFE"/>
<line x1="279.5" y1="106" x2="279.5" y2="109" stroke="#FEFEFE"/>
<line x1="282.5" y1="106" x2="282.5" y2="109" stroke="#FEFEFE"/>
<line x1="288.5" y1="106" x2="288.5" y2="109" stroke="#FEFEFE"/>
<line x1="285.5" y1="106" x2="285.5" y2="109" stroke="#FEFEFE"/>
<line x1="279.5" y1="63" x2="279.5" y2="66" stroke="#FEFEFE"/>
<line x1="282.5" y1="63" x2="282.5" y2="66" stroke="#FEFEFE"/>
<line x1="288.5" y1="63" x2="288.5" y2="66" stroke="#FEFEFE"/>
<line x1="285.5" y1="63" x2="285.5" y2="66" stroke="#FEFEFE"/>
<line x1="294.5" y1="106" x2="294.5" y2="109" stroke="#FEFEFE"/>
<line x1="297.5" y1="106" x2="297.5" y2="109" stroke="#FEFEFE"/>
<line x1="303.5" y1="106" x2="303.5" y2="109" stroke="#FEFEFE"/>
<line x1="300.5" y1="106" x2="300.5" y2="109" stroke="#FEFEFE"/>
<line x1="294.5" y1="63" x2="294.5" y2="66" stroke="#FEFEFE"/>
<line x1="297.5" y1="63" x2="297.5" y2="66" stroke="#FEFEFE"/>
<line x1="303.5" y1="63" x2="303.5" y2="66" stroke="#FEFEFE"/>
<line x1="300.5" y1="63" x2="300.5" y2="66" stroke="#FEFEFE"/>
<line x1="309.5" y1="106" x2="309.5" y2="109" stroke="#FEFEFE"/>
<line x1="312.5" y1="106" x2="312.5" y2="109" stroke="#FEFEFE"/>
<line x1="318.5" y1="106" x2="318.5" y2="109" stroke="#FEFEFE"/>
<line x1="315.5" y1="106" x2="315.5" y2="109" stroke="#FEFEFE"/>
<line x1="309.5" y1="63" x2="309.5" y2="66" stroke="#FEFEFE"/>
<line x1="312.5" y1="63" x2="312.5" y2="66" stroke="#FEFEFE"/>
<line x1="318.5" y1="63" x2="318.5" y2="66" stroke="#FEFEFE"/>
<line x1="315.5" y1="63" x2="315.5" y2="66" stroke="#FEFEFE"/>
<line x1="324.5" y1="106" x2="324.5" y2="109" stroke="#FEFEFE"/>
<line x1="327.5" y1="106" x2="327.5" y2="109" stroke="#FEFEFE"/>
<line x1="333.5" y1="106" x2="333.5" y2="109" stroke="#FEFEFE"/>
<line x1="330.5" y1="106" x2="330.5" y2="109" stroke="#FEFEFE"/>
<line x1="324.5" y1="63" x2="324.5" y2="66" stroke="#FEFEFE"/>
<line x1="327.5" y1="63" x2="327.5" y2="66" stroke="#FEFEFE"/>
<line x1="333.5" y1="63" x2="333.5" y2="66" stroke="#FEFEFE"/>
<line x1="330.5" y1="63" x2="330.5" y2="66" stroke="#FEFEFE"/>
</svg>
